<svg xmlns="http://www.w3.org/2000/svg" xmlns:xlink="http://www.w3.org/1999/xlink" width="216" zoomAndPan="magnify" viewBox="0 0 162 161.999997" height="216" preserveAspectRatio="xMidYMid meet" version="1.0"><defs><clipPath id="id1"><path d="M 1.472656 98 L 66 98 L 66 162 L 1.472656 162 Z M 1.472656 98 " clip-rule="nonzero"/></clipPath><clipPath id="id2"><path d="M 38 3 L 160.472656 3 L 160.472656 125 L 38 125 Z M 38 3 " clip-rule="nonzero"/></clipPath></defs><path fill="#ff4d67" d="M 63.621094 100.144531 L 3.917969 159.867188 " fill-opacity="1" fill-rule="nonzero"/><g clip-path="url(#id1)"><path fill="#282c49" d="M 3.917969 161.980469 C 3.375 161.980469 2.835938 161.773438 2.421875 161.363281 C 1.597656 160.535156 1.597656 159.195312 2.421875 158.371094 L 62.125 98.652344 C 62.949219 97.824219 64.289062 97.824219 65.113281 98.652344 C 65.941406 99.476562 65.941406 100.816406 65.113281 101.640625 L 5.414062 161.363281 C 5 161.773438 4.457031 161.980469 3.917969 161.980469 Z M 3.917969 161.980469 " fill-opacity="1" fill-rule="nonzero"/></g><path fill="#ffb800" d="M 45.886719 106.878906 L 56.902344 117.898438 L 15.308594 159.503906 L 4.292969 148.484375 Z M 45.886719 106.878906 " fill-opacity="1" fill-rule="nonzero"/><path fill="#282c49" d="M 15.300781 161.617188 C 14.757812 161.617188 14.21875 161.410156 13.804688 160.996094 L 2.789062 149.976562 C 2.390625 149.582031 2.167969 149.042969 2.167969 148.480469 C 2.167969 147.921875 2.390625 147.382812 2.789062 146.988281 L 44.382812 105.378906 C 44.78125 104.984375 45.316406 104.761719 45.878906 104.761719 C 46.441406 104.761719 46.976562 104.984375 47.375 105.378906 L 58.386719 116.398438 C 59.214844 117.226562 59.214844 118.5625 58.386719 119.390625 L 16.792969 160.996094 C 16.382812 161.410156 15.839844 161.617188 15.300781 161.617188 Z M 7.273438 148.480469 L 15.300781 156.511719 L 53.902344 117.894531 L 45.878906 109.867188 Z M 7.273438 148.480469 " fill-opacity="1" fill-rule="nonzero"/><path fill="#ff4d67" d="M 112.734375 46.085938 C 105.363281 46.085938 99.378906 51.328125 99.378906 57.789062 C 99.378906 51.328125 93.40625 46.085938 86.03125 46.085938 C 79.851562 46.085938 73.351562 51.253906 72.976562 57.421875 C 72.476562 65.652344 78.484375 73.355469 84.0625 78.714844 C 88.0625 82.558594 92.574219 86.125 97.167969 89.226562 C 97.351562 89.351562 99.109375 90.699219 99.378906 90.546875 C 110.332031 84.410156 126.09375 71.800781 126.09375 57.789062 C 126.089844 51.324219 120.109375 46.085938 112.734375 46.085938 Z M 112.734375 46.085938 " fill-opacity="1" fill-rule="nonzero"/><path fill="#282c49" d="M 99.324219 92.671875 C 98.511719 92.671875 97.8125 92.324219 96.070312 91.042969 L 95.957031 90.960938 C 91.070312 87.664062 86.5625 84.050781 82.597656 80.242188 C 74.367188 72.328125 70.417969 64.609375 70.863281 57.292969 C 71.289062 50.320312 78.515625 43.972656 86.027344 43.972656 C 91.707031 43.972656 96.683594 46.722656 99.371094 50.808594 C 100.058594 49.765625 100.902344 48.796875 101.898438 47.921875 C 104.808594 45.375 108.65625 43.972656 112.734375 43.972656 C 116.816406 43.972656 120.664062 45.375 123.570312 47.921875 C 126.558594 50.542969 128.207031 54.042969 128.207031 57.789062 C 128.207031 75.902344 105.054688 89.792969 100.414062 92.390625 C 100.097656 92.570312 99.6875 92.671875 99.324219 92.671875 Z M 86.03125 48.203125 C 80.695312 48.203125 75.378906 52.742188 75.085938 57.546875 C 74.628906 65.050781 80.511719 72.371094 85.527344 77.191406 C 89.265625 80.78125 93.699219 84.335938 98.351562 87.472656 C 98.398438 87.507812 98.472656 87.558594 98.574219 87.632812 C 98.878906 87.855469 99.117188 88.027344 99.304688 88.15625 C 110.90625 81.425781 123.976562 69.675781 123.976562 57.789062 C 123.976562 55.28125 122.84375 52.90625 120.785156 51.105469 C 118.648438 49.230469 115.789062 48.203125 112.734375 48.203125 C 109.679688 48.203125 106.824219 49.234375 104.6875 51.105469 C 102.628906 52.910156 101.496094 55.28125 101.496094 57.789062 C 101.496094 58.957031 100.546875 59.902344 99.378906 59.902344 C 98.214844 59.902344 97.265625 58.957031 97.265625 57.789062 C 97.265625 52.503906 92.226562 48.203125 86.03125 48.203125 Z M 86.03125 48.203125 " fill-opacity="1" fill-rule="nonzero"/><path fill="#ff4d67" d="M 140.902344 22.84375 C 118.050781 -0.015625 81 -0.015625 58.148438 22.84375 C 35.296875 45.703125 35.296875 82.761719 58.148438 105.617188 C 68.136719 115.609375 80.835938 121.234375 93.878906 122.492188 C 110.675781 124.109375 128.039062 118.488281 140.902344 105.621094 C 152.507812 94.007812 158.210938 78.734375 158.023438 63.515625 C 157.84375 48.773438 152.144531 34.089844 140.902344 22.84375 Z M 134.164062 98.878906 C 123.394531 109.652344 108.859375 114.359375 94.796875 113.003906 C 83.878906 111.949219 73.25 107.242188 64.886719 98.878906 C 45.757812 79.742188 45.757812 48.71875 64.886719 29.582031 C 84.019531 10.449219 115.035156 10.449219 134.164062 29.582031 C 143.574219 39 148.347656 51.292969 148.496094 63.632812 C 148.652344 76.371094 143.878906 89.160156 134.164062 98.878906 Z M 134.164062 98.878906 " fill-opacity="1" fill-rule="nonzero"/><g clip-path="url(#id2)"><path fill="#282c49" d="M 99.527344 124.878906 C 97.578125 124.878906 95.613281 124.785156 93.675781 124.597656 C 79.726562 123.253906 66.578125 117.042969 56.652344 107.113281 C 45.203125 95.660156 38.894531 80.429688 38.894531 64.230469 C 38.894531 48.03125 45.203125 32.800781 56.652344 21.347656 C 68.105469 9.890625 83.332031 3.585938 99.527344 3.585938 C 115.71875 3.585938 130.945312 9.890625 142.394531 21.347656 C 153.640625 32.597656 159.941406 47.5625 160.136719 63.492188 C 160.339844 79.976562 154.039062 95.46875 142.398438 107.117188 C 130.945312 118.570312 115.722656 124.878906 99.527344 124.878906 Z M 99.527344 7.8125 C 84.460938 7.8125 70.296875 13.683594 59.644531 24.339844 C 48.992188 34.992188 43.125 49.164062 43.125 64.230469 C 43.125 79.300781 48.992188 93.46875 59.644531 104.125 C 68.875 113.359375 81.105469 119.136719 94.082031 120.386719 C 95.882812 120.558594 97.714844 120.648438 99.527344 120.648438 C 114.589844 120.648438 128.753906 114.78125 139.410156 104.125 C 150.238281 93.289062 156.097656 78.878906 155.910156 63.542969 C 155.726562 48.726562 149.867188 34.800781 139.40625 24.335938 C 128.753906 13.683594 114.589844 7.8125 99.527344 7.8125 Z M 99.527344 115.34375 C 97.886719 115.34375 96.226562 115.265625 94.597656 115.109375 C 82.839844 113.976562 71.757812 108.742188 63.394531 100.375 C 43.472656 80.445312 43.472656 48.019531 63.394531 28.089844 C 73.046875 18.433594 85.878906 13.117188 99.527344 13.117188 C 113.175781 13.117188 126.007812 18.433594 135.660156 28.089844 C 145.136719 37.570312 150.445312 50.183594 150.613281 63.609375 C 150.78125 77.5 145.472656 90.558594 135.660156 100.375 C 126.007812 110.027344 113.175781 115.34375 99.527344 115.34375 Z M 99.527344 17.347656 C 87.007812 17.347656 75.238281 22.222656 66.382812 31.078125 C 48.109375 49.359375 48.109375 79.105469 66.382812 97.382812 C 74.058594 105.058594 84.21875 109.859375 95 110.898438 C 96.5 111.042969 98.019531 111.117188 99.523438 111.117188 C 112.046875 111.117188 123.816406 106.238281 132.671875 97.382812 C 141.667969 88.378906 146.539062 76.402344 146.382812 63.660156 C 146.230469 51.34375 141.359375 39.773438 132.667969 31.078125 C 123.816406 22.222656 112.046875 17.347656 99.527344 17.347656 Z M 99.527344 17.347656 " fill-opacity="1" fill-rule="nonzero"/></g><path fill="#282c49" d="M 136.292969 77.808594 C 136.136719 77.808594 135.980469 77.785156 135.824219 77.734375 C 135.03125 77.472656 134.597656 76.621094 134.859375 75.828125 C 134.902344 75.695312 134.964844 75.53125 135.046875 75.328125 C 135.359375 74.535156 136.015625 72.882812 136.632812 68.992188 C 136.765625 68.167969 137.539062 67.605469 138.363281 67.738281 C 139.1875 67.867188 139.746094 68.640625 139.617188 69.464844 C 138.945312 73.683594 138.207031 75.546875 137.855469 76.441406 C 137.800781 76.574219 137.757812 76.679688 137.726562 76.769531 C 137.519531 77.40625 136.929688 77.808594 136.292969 77.808594 Z M 136.292969 77.808594 " fill-opacity="1" fill-rule="nonzero"/><path fill="#282c49" d="M 139.027344 61.058594 C 138.207031 61.058594 137.53125 60.398438 137.519531 59.570312 C 137.183594 37.433594 115.359375 30.964844 114.433594 30.699219 C 113.628906 30.472656 113.164062 29.636719 113.390625 28.835938 C 113.621094 28.03125 114.449219 27.566406 115.253906 27.792969 C 115.503906 27.863281 140.171875 35.113281 140.539062 59.527344 C 140.550781 60.359375 139.886719 61.046875 139.050781 61.058594 C 139.042969 61.058594 139.035156 61.058594 139.027344 61.058594 Z M 139.027344 61.058594 " fill-opacity="1" fill-rule="nonzero"/><path fill="#282c49" d="M 79.015625 64.214844 C 78.449219 64.214844 77.90625 63.894531 77.648438 63.347656 C 76.335938 60.558594 76.148438 58.019531 77.097656 55.800781 C 77.421875 55.035156 78.3125 54.675781 79.078125 55.003906 C 79.84375 55.332031 80.199219 56.21875 79.875 56.988281 C 79.28125 58.378906 79.449219 60.085938 80.378906 62.058594 C 80.734375 62.816406 80.410156 63.714844 79.65625 64.070312 C 79.449219 64.167969 79.230469 64.214844 79.015625 64.214844 Z M 79.015625 64.214844 " fill-opacity="1" fill-rule="nonzero"/></svg>