<svg width="30" height="22" viewBox="0 0 30 22" fill="none" xmlns="http://www.w3.org/2000/svg">
<path fill-rule="evenodd" clip-rule="evenodd" d="M21.2266 12.5068C23.0532 13.7468 24.3332 15.4268 24.3332 17.6668V21.6668H28.3332C29.0666 21.6668 29.6666 21.0668 29.6666 20.3335V17.6668C29.6666 14.7602 24.9066 13.0402 21.2266 12.5068Z" fill="url(#paint0_linear_3779_3684)"/>
<path d="M10.9998 11.0002C13.9454 11.0002 16.3332 8.61235 16.3332 5.66683C16.3332 2.72131 13.9454 0.333496 10.9998 0.333496C8.05432 0.333496 5.6665 2.72131 5.6665 5.66683C5.6665 8.61235 8.05432 11.0002 10.9998 11.0002Z" fill="url(#paint1_linear_3779_3684)"/>
<path fill-rule="evenodd" clip-rule="evenodd" d="M18.9999 11.0002C21.9466 11.0002 24.3332 8.6135 24.3332 5.66683C24.3332 2.72016 21.9466 0.333496 18.9999 0.333496C18.3732 0.333496 17.7866 0.466829 17.2266 0.653496C18.3332 2.02683 18.9999 3.7735 18.9999 5.66683C18.9999 7.56016 18.3332 9.30683 17.2266 10.6802C17.7866 10.8668 18.3732 11.0002 18.9999 11.0002Z" fill="url(#paint2_linear_3779_3684)"/>
<path fill-rule="evenodd" clip-rule="evenodd" d="M10.9999 12.3335C7.43992 12.3335 0.333252 14.1202 0.333252 17.6668V20.3335C0.333252 21.0668 0.933252 21.6668 1.66659 21.6668H20.3333C21.0666 21.6668 21.6666 21.0668 21.6666 20.3335V17.6668C21.6666 14.1202 14.5599 12.3335 10.9999 12.3335Z" fill="url(#paint3_linear_3779_3684)"/>
<defs>
<linearGradient id="paint0_linear_3779_3684" x1="29.6666" y1="21.6891" x2="20.5372" y2="13.2773" gradientUnits="userSpaceOnUse">
<stop stop-color="#fff"/>
<stop offset="1" stop-color="#fff"/>
</linearGradient>
<linearGradient id="paint1_linear_3779_3684" x1="16.3332" y1="11.0261" x2="5.66651" y2="0.359406" gradientUnits="userSpaceOnUse">
<stop stop-color="#fff"/>
<stop offset="1" stop-color="#fff"/>
</linearGradient>
<linearGradient id="paint2_linear_3779_3684" x1="24.3332" y1="11.0261" x2="14.4894" y2="4.46765" gradientUnits="userSpaceOnUse">
<stop stop-color="#fff"/>
<stop offset="1" stop-color="#fff"/>
</linearGradient>
<linearGradient id="paint3_linear_3779_3684" x1="21.6666" y1="21.6895" x2="14.8119" y2="6.02174" gradientUnits="userSpaceOnUse">
<stop stop-color="#fff"/>
<stop offset="1" stop-color="#fff"/>
</linearGradient>
</defs>
</svg>
