<svg width="24" height="24" viewBox="0 0 14 15" fill="none" xmlns="http://www.w3.org/2000/svg">
<path d="M6.00018 3.57104L2.05018 7.52104C1.86158 7.7032 1.60898 7.80399 1.34678 7.80171C1.08458 7.79944 0.83377 7.69427 0.648362 7.50886C0.462954 7.32345 0.357785 7.07264 0.355507 6.81044C0.353228 6.54824 0.454022 6.29564 0.636181 6.10704L6.29318 0.450041C6.38583 0.356856 6.49599 0.282906 6.61733 0.232445C6.73866 0.181983 6.86877 0.156006 7.00018 0.156006C7.13159 0.156006 7.2617 0.181983 7.38303 0.232445C7.50437 0.282906 7.61453 0.356856 7.70718 0.450041L13.3642 6.10704C13.5418 6.29649 13.6388 6.54763 13.6346 6.80731C13.6304 7.06699 13.5253 7.31485 13.3416 7.49843C13.1579 7.68201 12.9099 7.78692 12.6503 7.79095C12.3906 7.79499 12.1395 7.69783 11.9502 7.52004L8.00018 3.57004V13.156C8.00018 13.4213 7.89482 13.6756 7.70729 13.8631C7.51975 14.0507 7.2654 14.156 7.00018 14.156C6.73496 14.156 6.48061 14.0507 6.29307 13.8631C6.10554 13.6756 6.00018 13.4213 6.00018 13.156V3.57004V3.57104Z" fill="white"/>
</svg>
