<svg width="16" height="16" viewBox="0 0 16 16" fill="none" xmlns="http://www.w3.org/2000/svg">
<path d="M14.9994 6.99973H3.82937L8.70937 2.11973C9.09937 1.72973 9.09937 1.08973 8.70937 0.699727C8.31937 0.309727 7.68937 0.309727 7.29937 0.699727L0.70937 7.28973C0.31937 7.67973 0.31937 8.30973 0.70937 8.69973L7.29937 15.2897C7.68937 15.6797 8.31937 15.6797 8.70937 15.2897C9.09937 14.8997 9.09937 14.2697 8.70937 13.8797L3.82937 8.99973H14.9994C15.5494 8.99973 15.9994 8.54973 15.9994 7.99973C15.9994 7.44973 15.5494 6.99973 14.9994 6.99973Z" fill="url(#paint0_linear_3430_6316)"/>
<defs>
<linearGradient id="paint0_linear_3430_6316" x1="15.9994" y1="15.6191" x2="0.829696" y2="0.0420605" gradientUnits="userSpaceOnUse">
<stop stop-color="#FF4D67"/>
<stop offset="1" stop-color="#FD788C"/>
</linearGradient>
</defs>
</svg>