<svg width="28" height="24" viewBox="0 0 28 24" fill="none" xmlns="http://www.w3.org/2000/svg">
<path d="M15.3334 17.3333H12.6667C11.9334 17.3333 11.3334 16.7333 11.3334 16H2.01341V21.3333C2.01341 22.8 3.21342 24 4.68008 24H23.3334C24.8001 24 26.0001 22.8 26.0001 21.3333V16H16.6667C16.6667 16.7333 16.0667 17.3333 15.3334 17.3333ZM24.6667 5.33333H19.3334C19.3334 2.38667 16.9467 0 14.0001 0C11.0534 0 8.66675 2.38667 8.66675 5.33333H3.33341C1.86675 5.33333 0.666748 6.53333 0.666748 8V12C0.666748 13.48 1.85341 14.6667 3.33341 14.6667H11.3334V13.3333C11.3334 12.6 11.9334 12 12.6667 12H15.3334C16.0667 12 16.6667 12.6 16.6667 13.3333V14.6667H24.6667C26.1334 14.6667 27.3334 13.4667 27.3334 12V8C27.3334 6.53333 26.1334 5.33333 24.6667 5.33333ZM11.3334 5.33333C11.3334 3.86667 12.5334 2.66667 14.0001 2.66667C15.4667 2.66667 16.6667 3.86667 16.6667 5.33333H11.3201H11.3334Z" fill="url(#paint0_linear_3836_69)"/>
<defs>
<linearGradient id="paint0_linear_3836_69" x1="27.3334" y1="24.0583" x2="3.46601" y2="-2.46104" gradientUnits="userSpaceOnUse">
<stop stop-color="#FF4D67"/>
<stop offset="1" stop-color="#FD788C"/>
</linearGradient>
</defs>
</svg>
