<svg width="18" height="18" viewBox="0 0 18 18" fill="none" xmlns="http://www.w3.org/2000/svg">
<path d="M16.23 12.2598L13.69 11.9698C13.08 11.8998 12.48 12.1098 12.05 12.5398L10.21 14.3798C7.38 12.9398 5.06 10.6298 3.62 7.78977L5.47 5.93976C5.9 5.50977 6.11 4.90977 6.04 4.29977L5.75 1.77977C5.63 0.769766 4.78 0.00976562 3.76 0.00976562H2.03C0.899999 0.00976562 -0.0400013 0.949766 0.0299987 2.07977C0.559999 10.6198 7.39 17.4398 15.92 17.9698C17.05 18.0398 17.99 17.0998 17.99 15.9698V14.2398C18 13.2298 17.24 12.3798 16.23 12.2598Z" fill="#FF4D67"/>
</svg>
