<svg width="16" height="17" viewBox="0 0 16 17" fill="none" xmlns="http://www.w3.org/2000/svg">
<path d="M0 4.5C0 2.29086 1.79086 0.5 4 0.5H12C14.2091 0.5 16 2.29086 16 4.5V12.5C16 14.7091 14.2091 16.5 12 16.5H4C1.79086 16.5 0 14.7091 0 12.5V4.5Z" fill="#FF4D67"/>
<mask id="mask0_3510_1425" style="mask-type:alpha" maskUnits="userSpaceOnUse" x="2" y="4" width="12" height="9">
<path d="M5.86337 11.0831L3.55004 8.76976C3.42548 8.64493 3.25638 8.57477 3.08004 8.57477C2.90369 8.57477 2.73459 8.64493 2.61004 8.76976C2.35004 9.02976 2.35004 9.44976 2.61004 9.70976L5.39671 12.4964C5.65671 12.7564 6.07671 12.7564 6.33671 12.4964L13.39 5.4431C13.65 5.1831 13.65 4.7631 13.39 4.5031C13.2655 4.37826 13.0964 4.30811 12.92 4.30811C12.7437 4.30811 12.5746 4.37826 12.45 4.5031L5.86337 11.0831Z" fill="black"/>
</mask>
<g mask="url(#mask0_3510_1425)">
<rect y="0.5" width="16" height="16" fill="white"/>
</g>
</svg>



