<svg width="24" height="24" viewBox="0 0 24 24" fill="none" xmlns="http://www.w3.org/2000/svg">
<rect y="-0.000976562" width="24" height="24" rx="12" fill="#FF4D67"/>
<mask id="mask0_3686_3408" style="mask-type:alpha" maskUnits="userSpaceOnUse" x="5" y="6" width="14" height="13">
<path fill-rule="evenodd" clip-rule="evenodd" d="M17.8061 7.75597C18.0661 8.01597 18.0661 8.43597 17.8061 8.69597L16.5861 9.91597L14.0861 7.41597L15.3061 6.19597C15.4307 6.07113 15.5998 6.00098 15.7761 6.00098C15.9525 6.00098 16.1216 6.07113 16.2461 6.19597L17.8061 7.75597ZM5.99939 17.6699V15.6432C5.99939 15.5499 6.03272 15.4699 6.09939 15.4032L13.3727 8.12988L15.8727 10.6299L8.59272 17.9032C8.53272 17.9699 8.44606 18.0032 8.35939 18.0032H6.33272C6.14606 18.0032 5.99939 17.8566 5.99939 17.6699Z" fill="black"/>
</mask>
<g mask="url(#mask0_3686_3408)">
<rect x="4" y="4" width="16" height="16" fill="white"/>
</g>
</svg>
