<svg width="25" height="25" viewBox="0 0 25 25" fill="none" xmlns="http://www.w3.org/2000/svg">
<rect x="0.200012" y="0.200195" width="24.8" height="24.8" rx="12.4" fill="#FF4D67"/>
<mask id="mask0_3759_13215" style="mask-type:alpha" maskUnits="userSpaceOnUse" x="6" y="6" width="13" height="13">
<path fill-rule="evenodd" clip-rule="evenodd" d="M18.5995 8.21388C18.8681 8.48255 18.8681 8.91655 18.5995 9.18521L17.3388 10.4459L14.7554 7.86255L16.0161 6.60188C16.1448 6.47288 16.3196 6.40039 16.5018 6.40039C16.684 6.40039 16.8587 6.47288 16.9874 6.60188L18.5995 8.21388ZM6.39922 18.4583V16.364C6.39922 16.2676 6.43366 16.1849 6.50255 16.116L14.0183 8.60026L16.6017 11.1836L9.079 18.6994C9.017 18.7683 8.92744 18.8027 8.83788 18.8027H6.74366C6.55077 18.8027 6.39922 18.6512 6.39922 18.4583Z" fill="black"/>
</mask>
<g mask="url(#mask0_3759_13215)">
<rect x="4.33339" y="4.33398" width="16.5333" height="16.5333" fill="white"/>
</g>
</svg>
