<svg width="30" height="28" viewBox="0 0 42 37" fill="none" xmlns="http://www.w3.org/2000/svg">
<path d="M36.3201 2.97984C31.0401 -0.620157 24.5201 1.05984 21.0001 5.17984C17.4801 1.05984 10.9601 -0.640157 5.68006 2.97984C2.88006 4.89984 1.12006 8.13984 1.00006 11.5598C0.72006 19.3198 7.60006 25.5398 18.1001 35.0798L18.3001 35.2598C19.8201 36.6398 22.1601 36.6398 23.6801 35.2398L23.9001 35.0398C34.4001 25.5198 41.2601 19.2998 41.0001 11.5398C40.8801 8.13984 39.1201 4.89984 36.3201 2.97984ZM21.2001 32.0998L21.0001 32.2998L20.8001 32.0998C11.2801 23.4798 5.00006 17.7798 5.00006 11.9998C5.00006 7.99984 8.00006 4.99984 12.0001 4.99984C15.0801 4.99984 18.0801 6.97984 19.1401 9.71984H22.8801C23.9201 6.97984 26.9201 4.99984 30.0001 4.99984C34.0001 4.99984 37.0001 7.99984 37.0001 11.9998C37.0001 17.7798 30.7201 23.4798 21.2001 32.0998Z" fill="url(#paint0_linear_3378_10679)"/>
<defs>
<linearGradient id="paint0_linear_3378_10679" x1="41.0072" y1="36.3781" x2="5.98975" y2="-3.32394" gradientUnits="userSpaceOnUse">
<stop stop-color="#FF4D67"/>
<stop offset="1" stop-color="#FD788C"/>
</linearGradient>
</defs>
</svg>
