<svg width="16" height="16" viewBox="0 0 16 16" fill="none" xmlns="http://www.w3.org/2000/svg">
<path d="M8.00004 1.33337C4.32004 1.33337 1.33337 4.32004 1.33337 8.00004C1.33337 11.68 4.32004 14.6667 8.00004 14.6667C11.68 14.6667 14.6667 11.68 14.6667 8.00004C14.6667 4.32004 11.68 1.33337 8.00004 1.33337ZM8.00004 8.66671C7.63337 8.66671 7.33337 8.36671 7.33337 8.00004V5.33337C7.33337 4.96671 7.63337 4.66671 8.00004 4.66671C8.36671 4.66671 8.66671 4.96671 8.66671 5.33337V8.00004C8.66671 8.36671 8.36671 8.66671 8.00004 8.66671ZM8.66671 11.3334H7.33337V10H8.66671V11.3334Z" fill="#DA1414"/>
</svg>
