<svg width="24" height="28" viewBox="0 0 24 28" fill="none" xmlns="http://www.w3.org/2000/svg">
<path d="M2.97336 0.666504C1.3867 0.666504 0.146698 2.05317 0.320031 3.6265L2.68003 24.9732C2.84003 26.3065 3.96003 27.3332 5.33336 27.3332H18.6667C20.04 27.3332 21.16 26.3065 21.32 24.9732L23.68 3.6265C23.8534 2.05317 22.6134 0.666504 21.0267 0.666504H2.97336ZM12 23.3332C9.7867 23.3332 8.00003 21.5465 8.00003 19.3332C8.00003 17.2665 10.4134 14.0665 11.4934 12.7465C11.76 12.4132 12.2534 12.4132 12.52 12.7465C13.6 14.0798 16.0134 17.2665 16.0134 19.3332C16 21.5465 14.2134 23.3332 12 23.3332ZM20.44 8.6665H3.56003L3.13336 4.81317C3.05336 4.0265 3.6667 3.33317 4.4667 3.33317H19.5334C20.32 3.33317 20.9467 4.0265 20.8534 4.81317L20.44 8.6665Z" fill="url(#paint0_linear_3836_5910)"/>
<defs>
<linearGradient id="paint0_linear_3836_5910" x1="23.6962" y1="27.398" x2="-2.74324" y2="4.20486" gradientUnits="userSpaceOnUse">
<stop stop-color="#FF4D67"/>
<stop offset="1" stop-color="#FD788C"/>
</linearGradient>
</defs>
</svg>
