<svg width="280" height="220" viewBox="0 0 280 220" fill="none" xmlns="http://www.w3.org/2000/svg">
<g clip-path="url(#clip0_3351_114546)">
<path d="M254.873 200.837C249.506 206.588 243.355 211.554 236.603 215.588C236.449 215.683 236.291 215.772 236.133 215.865L225.202 206.183C225.317 206.076 225.444 205.957 225.581 205.825C233.726 198.086 274.158 143.973 276.853 130.796C276.667 131.893 279.284 174.945 254.873 200.837Z" fill="#23252F"/>
<path d="M238.713 217.456C238.506 217.505 238.296 217.551 238.085 217.593L229.884 210.33C230.045 210.274 230.232 210.207 230.446 210.134C233.964 208.887 244.444 205.123 254.873 200.836C266.078 196.228 277.23 191.021 279.629 187.686C279.114 188.461 263.266 211.961 238.713 217.456Z" fill="#23252F"/>
<path d="M254.722 57.6174H253.554V25.6015C253.554 23.1681 253.075 20.7585 252.144 18.5104C251.214 16.2622 249.85 14.2195 248.131 12.4988C246.411 10.7782 244.37 9.41326 242.124 8.48204C239.877 7.55082 237.469 7.07153 235.038 7.07153H167.259C164.827 7.07153 162.419 7.55081 160.173 8.48202C157.926 9.41323 155.885 10.7781 154.166 12.4988C152.447 14.2195 151.083 16.2622 150.152 18.5103C149.222 20.7585 148.743 23.168 148.743 25.6014V201.243C148.743 203.677 149.222 206.086 150.152 208.334C151.083 210.582 152.447 212.625 154.166 214.346C155.885 216.067 157.926 217.431 160.173 218.363C162.419 219.294 164.827 219.773 167.259 219.773H235.038C237.469 219.773 239.877 219.294 242.123 218.363C244.37 217.431 246.411 216.067 248.13 214.346C249.85 212.625 251.214 210.583 252.144 208.334C253.075 206.086 253.554 203.677 253.554 201.243V80.4068H254.722V57.6174Z" fill="#3F3D56"/>
<path d="M249.612 25.7287V201.115C249.612 202.932 249.255 204.732 248.559 206.41C247.864 208.089 246.846 209.615 245.561 210.899C244.277 212.184 242.753 213.203 241.075 213.898C239.397 214.593 237.599 214.951 235.783 214.95H167.677C165.862 214.95 164.064 214.592 162.387 213.897C160.709 213.202 159.185 212.183 157.901 210.898C156.618 209.613 155.599 208.088 154.905 206.409C154.21 204.731 153.852 202.932 153.853 201.115V25.7287C153.852 23.9118 154.21 22.1126 154.905 20.434C155.599 18.7554 156.618 17.2302 157.901 15.9455C159.185 14.6607 160.709 13.6416 162.387 12.9464C164.064 12.2512 165.862 11.8934 167.677 11.8936H175.942C175.537 12.8919 175.382 13.9746 175.493 15.0466C175.603 16.1187 175.975 17.1471 176.576 18.0414C177.177 18.9357 177.988 19.6686 178.939 20.1756C179.889 20.6826 180.949 20.9481 182.026 20.9488H220.855C221.932 20.9498 222.994 20.6854 223.945 20.1789C224.896 19.6725 225.708 18.9394 226.309 18.0446C226.911 17.1497 227.283 16.1205 227.392 15.0478C227.502 13.9751 227.346 12.8918 226.939 11.8936H235.783C237.599 11.8929 239.397 12.2503 241.075 12.9453C242.753 13.6402 244.277 14.6592 245.561 15.944C246.846 17.2288 247.864 18.7542 248.559 20.433C249.255 22.1119 249.612 23.9114 249.612 25.7287V25.7287Z" fill="#23252F"/>
<path d="M188.265 212.568C188.265 213.372 188.235 214.166 188.17 214.95H167.677C165.862 214.95 164.064 214.592 162.387 213.897C160.709 213.202 159.185 212.183 157.901 210.898C156.618 209.613 155.599 208.088 154.905 206.41C154.21 204.731 153.852 202.932 153.853 201.115V182.355C158.148 181.796 162.513 182.16 166.657 183.422C170.801 184.684 174.629 186.815 177.885 189.674C181.142 192.533 183.752 196.053 185.541 200.001C187.331 203.949 188.259 208.233 188.265 212.568H188.265Z" fill="#FF4D67"/>
<path d="M22.9858 179.651C23.5616 179.904 24.2143 179.919 24.8008 179.691C25.3874 179.464 25.8597 179.013 26.1144 178.437L44.5751 136.566C44.9977 135.608 45.1268 134.546 44.9461 133.514C44.7655 132.483 44.2832 131.528 43.5603 130.77C42.8373 130.013 41.9062 129.487 40.8847 129.26C39.8632 129.032 38.7971 129.113 37.8214 129.491H37.8213C36.694 129.922 35.7506 130.73 35.1518 131.779C35.0565 131.945 34.9701 132.116 34.893 132.291L16.4322 174.162C16.3064 174.447 16.238 174.754 16.2308 175.066C16.2237 175.378 16.278 175.688 16.3907 175.979C16.5033 176.269 16.6721 176.535 16.8874 176.761C17.1027 176.986 17.3602 177.167 17.6453 177.293L22.9858 179.651Z" fill="#FF4D67"/>
<path d="M80.6998 180.25C80.1627 180.249 79.6374 180.092 79.1874 179.799C78.7374 179.506 78.3819 179.088 78.164 178.597L59.7033 136.726C59.1162 135.394 59.0616 133.887 59.5508 132.516C60.04 131.144 61.0357 130.013 62.3331 129.354C63.6305 128.695 65.131 128.559 66.5257 128.973C67.9205 129.388 69.1035 130.321 69.8313 131.582V131.582C69.9336 131.76 70.0264 131.943 70.1092 132.131L88.5699 174.002C88.8663 174.674 88.8837 175.437 88.6183 176.122C88.3528 176.807 87.8264 177.359 87.1546 177.655L81.6332 180.093L81.6304 180.087C81.3319 180.195 81.0171 180.25 80.6998 180.25V180.25Z" fill="#FF4D67"/>
<path d="M55.1637 165.872C54.5345 165.872 53.9314 166.123 53.4865 166.568C53.0417 167.013 52.7915 167.617 52.7908 168.246V216.933C52.7915 217.562 53.0417 218.166 53.4865 218.611C53.9314 219.056 54.5345 219.307 55.1637 219.307H61.0007C61.6299 219.307 62.233 219.056 62.6779 218.611C63.1227 218.166 63.3729 217.562 63.3736 216.933V168.246C63.3729 167.617 63.1227 167.013 62.6779 166.568C62.233 166.123 61.6299 165.872 61.0007 165.872H55.1637Z" fill="#FF4D67"/>
<path d="M43.6187 165.872C42.9896 165.872 42.3865 166.123 41.9416 166.568C41.4968 167.013 41.2466 167.617 41.2458 168.246V216.933C41.2466 217.562 41.4968 218.166 41.9416 218.611C42.3865 219.056 42.9896 219.307 43.6187 219.307H49.4559C50.085 219.307 50.6882 219.056 51.133 218.611C51.5779 218.166 51.8281 217.562 51.8288 216.933V168.246C51.8281 167.617 51.5779 167.013 51.133 166.568C50.6882 166.123 50.085 165.872 49.4559 165.872H43.6187Z" fill="#FF4D67"/>
<path d="M279.605 220H0.39548C0.290592 220 0.19 219.958 0.115833 219.884C0.0416662 219.81 0 219.709 0 219.604C0 219.499 0.0416662 219.399 0.115833 219.324C0.19 219.25 0.290592 219.208 0.39548 219.208H279.605C279.709 219.208 279.81 219.25 279.884 219.324C279.958 219.399 280 219.499 280 219.604C280 219.709 279.958 219.81 279.884 219.884C279.81 219.958 279.709 220 279.605 220Z" fill="#3F3D56"/>
<path d="M211.458 154.328H183.038C181.99 154.327 180.985 153.91 180.243 153.168C179.502 152.426 179.085 151.42 179.083 150.371V148.401C179.085 147.351 179.502 146.345 180.243 145.603C180.985 144.861 181.99 144.444 183.038 144.443H211.458C212.507 144.444 213.512 144.861 214.253 145.603C214.995 146.345 215.412 147.351 215.413 148.401V150.371C215.412 151.42 214.995 152.426 214.253 153.168C213.512 153.91 212.507 154.327 211.458 154.328V154.328Z" fill="#FF4D67"/>
<path d="M214.453 150.531H186.033C184.932 150.529 183.876 150.091 183.098 149.312C182.319 148.533 181.881 147.477 181.88 146.375V144.405C181.881 143.303 182.319 142.247 183.098 141.468C183.876 140.689 184.932 140.251 186.033 140.249H214.453C215.554 140.251 216.609 140.689 217.388 141.468C218.166 142.247 218.604 143.303 218.605 144.405V146.375C218.604 147.477 218.166 148.533 217.388 149.312C216.609 150.091 215.554 150.529 214.453 150.531V150.531ZM186.033 141.041C185.141 141.042 184.287 141.397 183.657 142.027C183.027 142.658 182.672 143.513 182.671 144.405V146.375C182.672 147.267 183.027 148.122 183.657 148.753C184.287 149.383 185.141 149.738 186.033 149.739H214.453C215.344 149.738 216.198 149.383 216.829 148.753C217.459 148.122 217.813 147.267 217.814 146.375V144.405C217.813 143.513 217.459 142.658 216.829 142.027C216.198 141.397 215.344 141.042 214.453 141.041H186.033Z" fill="#3F3D56"/>
<path d="M43.8174 153.756L25.5574 149.695L30.0769 137.73C30.8468 134.806 32.6386 132.254 35.1273 130.538C37.616 128.823 40.6367 128.056 43.6415 128.379L43.8174 128.398L43.8174 153.756Z" fill="#2F2E41"/>
<path d="M228.427 133.85H168.565C167.516 133.849 166.511 133.432 165.769 132.69C165.028 131.948 164.611 130.942 164.61 129.893V127.923C164.611 126.873 165.028 125.867 165.769 125.125C166.511 124.383 167.516 123.966 168.565 123.965H228.427C229.476 123.966 230.481 124.383 231.222 125.125C231.964 125.867 232.381 126.873 232.382 127.923V129.893C232.381 130.942 231.964 131.948 231.222 132.69C230.481 133.432 229.476 133.849 228.427 133.85V133.85Z" fill="#23252F"/>
<path d="M72.1203 180.496L64.8609 127.461C64.783 126.893 64.502 126.371 64.0698 125.994C63.6375 125.617 63.0834 125.409 62.5098 125.409H57.0303C57.0531 125.278 57.065 125.146 57.0658 125.013V123.034C57.0658 122.405 56.8158 121.801 56.3708 121.355C55.9258 120.91 55.3223 120.66 54.6929 120.66H49.9472C49.3179 120.66 48.7143 120.91 48.2693 121.355C47.8243 121.801 47.5743 122.405 47.5743 123.034V125.013C47.5751 125.146 47.587 125.278 47.6098 125.409H42.1303C41.5567 125.409 41.0026 125.617 40.5703 125.994C40.1381 126.372 39.8571 126.893 39.7792 127.461L32.5198 180.496C32.4738 180.832 32.5002 181.173 32.5973 181.498C32.6944 181.823 32.8598 182.123 33.0825 182.379C33.3053 182.634 33.5801 182.839 33.8885 182.98C34.1969 183.12 34.5318 183.193 34.8706 183.193H69.7694C70.1083 183.193 70.4431 183.12 70.7516 182.98C71.06 182.839 71.3348 182.634 71.5575 182.379C71.7803 182.123 71.9457 181.823 72.0428 181.498C72.1399 181.173 72.1663 180.832 72.1203 180.496V180.496Z" fill="#2F2E41"/>
<path d="M60.823 153.756V128.398L60.9989 128.379C64.0074 128.057 67.0315 128.825 69.5217 130.545C72.012 132.265 73.8032 134.822 74.57 137.751L79.083 149.695L60.823 153.756Z" fill="#2F2E41"/>
<path d="M231.422 130.053H171.559C170.458 130.051 169.403 129.613 168.624 128.834C167.846 128.055 167.408 126.999 167.407 125.897V123.927C167.408 122.825 167.846 121.769 168.624 120.99C169.403 120.211 170.458 119.772 171.559 119.771H231.422C232.523 119.772 233.578 120.211 234.357 120.99C235.135 121.769 235.573 122.825 235.574 123.927V125.897C235.573 126.999 235.135 128.055 234.357 128.834C233.578 129.613 232.523 130.051 231.422 130.053V130.053ZM171.559 120.563C170.668 120.564 169.814 120.919 169.183 121.549C168.553 122.18 168.199 123.035 168.198 123.927V125.897C168.199 126.789 168.553 127.644 169.183 128.275C169.814 128.905 170.668 129.26 171.559 129.261H231.422C232.313 129.26 233.168 128.905 233.798 128.275C234.428 127.644 234.782 126.789 234.783 125.897V123.927C234.782 123.035 234.428 122.18 233.798 121.549C233.168 120.919 232.313 120.564 231.422 120.563H171.559Z" fill="#3F3D56"/>
<path d="M228.427 116.869H168.565C167.516 116.868 166.511 116.45 165.769 115.708C165.028 114.966 164.611 113.96 164.61 112.911V110.941C164.611 109.892 165.028 108.886 165.769 108.144C166.511 107.402 167.516 106.984 168.565 106.983H228.427C229.476 106.984 230.481 107.402 231.222 108.144C231.964 108.886 232.381 109.892 232.382 110.941V112.911C232.381 113.96 231.964 114.966 231.222 115.708C230.481 116.45 229.476 116.868 228.427 116.869Z" fill="#23252F"/>
<path d="M131.655 113.162L118.387 103.006L108.24 116.284L121.507 126.44L131.655 113.162Z" fill="#23252F"/>
<path d="M231.422 113.071H171.559C170.458 113.07 169.403 112.631 168.624 111.852C167.846 111.073 167.408 110.017 167.407 108.915V106.945C167.408 105.843 167.846 104.787 168.624 104.008C169.403 103.229 170.458 102.791 171.559 102.79H231.422C232.523 102.791 233.578 103.229 234.357 104.008C235.135 104.787 235.573 105.843 235.574 106.945V108.915C235.573 110.017 235.135 111.073 234.357 111.852C233.578 112.631 232.523 113.07 231.422 113.071V113.071ZM171.559 103.581C170.668 103.582 169.814 103.937 169.183 104.568C168.553 105.198 168.199 106.053 168.198 106.945V108.915C168.199 109.807 168.553 110.662 169.183 111.293C169.814 111.924 170.668 112.278 171.559 112.279H231.422C232.313 112.278 233.168 111.924 233.798 111.293C234.428 110.662 234.782 109.807 234.783 108.915V106.945C234.782 106.053 234.428 105.198 233.798 104.568C233.168 103.937 232.313 103.582 231.422 103.581H171.559Z" fill="#3F3D56"/>
<path d="M52.1353 114.864C63.2746 114.864 72.3048 105.827 72.3048 94.6795C72.3048 83.5319 63.2746 74.4949 52.1353 74.4949C40.996 74.4949 31.9658 83.5319 31.9658 94.6795C31.9658 105.827 40.996 114.864 52.1353 114.864Z" fill="#FF4D67"/>
<path d="M70.1272 90.4587H65.8672V91.2503H70.1272V90.4587Z" fill="#2F2E41"/>
<path d="M56.6809 90.4587H52.4209V91.2503H56.6809V90.4587Z" fill="#2F2E41"/>
<path d="M58.8474 103.153C60.1548 103.116 61.782 103.071 63.0356 102.155C63.4088 101.871 63.7155 101.508 63.9342 101.093C64.1528 100.678 64.278 100.22 64.3011 99.7512C64.3238 99.4181 64.2692 99.0842 64.1416 98.7757C64.0139 98.4672 63.8167 98.1925 63.5654 97.9729C62.9107 97.4192 61.9546 97.2894 60.9243 97.5924L61.9918 89.7854L61.2082 89.678L59.9532 98.8561L60.6076 98.5555C61.3663 98.2073 62.4077 98.0301 63.0548 98.5774C63.2137 98.7205 63.3376 98.8983 63.4166 99.0971C63.4957 99.2958 63.5279 99.5101 63.5107 99.7234C63.4915 100.072 63.3975 100.413 63.235 100.722C63.0725 101.031 62.8453 101.302 62.569 101.515C61.5935 102.228 60.2965 102.32 58.8254 102.362L58.8474 103.153Z" fill="#2F2E41"/>
<path d="M51.1199 115.494L37.1691 110.075C34.8879 109.189 32.5939 108.33 30.3247 107.413C29.3527 107.074 28.4574 106.546 27.6902 105.859C27.0223 105.152 26.5671 104.27 26.3768 103.316C25.8929 101.269 25.9804 99.0313 26.0149 96.9426C26.0417 94.6577 26.2296 92.3776 26.5772 90.1191C27.1864 85.8752 28.6171 81.7909 30.7892 78.0952C34.7015 71.6711 41.4423 66.8379 49.196 67.2236C52.7856 67.4022 56.3959 68.6913 59.063 71.1474C59.3412 71.4801 59.6533 71.7828 59.9943 72.0507C60.2314 72.1397 60.4893 72.157 60.7361 72.1005C61.0616 72.0796 61.3873 72.0636 61.7133 72.0526C62.8445 72.0048 63.9776 72.0524 65.1008 72.1948C67.1476 72.4161 69.0876 73.2222 70.6891 74.5169C72.0219 75.6643 73.1064 77.2841 73.218 79.0841C73.2718 79.9105 73.1353 80.7382 72.8189 81.5033C72.5025 82.2685 72.0147 82.9507 71.3931 83.4973C69.7287 84.9011 67.354 84.4077 65.3575 84.3018L58.0436 83.9141L54.3379 83.7176C53.5749 83.6771 53.5771 84.8646 54.3379 84.9049L64.1873 85.4271C65.7701 85.511 67.4014 85.7167 68.9854 85.6217C70.2026 85.5666 71.3648 85.0987 72.2811 84.2949C73.1178 83.5257 73.7412 82.5525 74.0902 81.4704C74.4393 80.3882 74.5023 79.2341 74.2729 78.1203C73.7651 75.6912 71.9587 73.6818 69.8409 72.4864C66.9594 70.8598 63.518 70.704 60.2937 70.9444L60.7132 71.1183C57.066 67.2008 51.4793 65.5468 46.2346 66.1257C40.6969 66.7368 35.7717 69.8285 32.233 74.0561C28.2875 78.7696 26.1374 84.6469 25.3016 90.6905C24.8666 93.9536 24.7234 97.2489 24.8737 100.537C24.8675 101.988 25.1154 103.428 25.6062 104.792C26.1662 106.121 27.1786 107.207 28.4636 107.858C29.9367 108.57 31.4512 109.192 32.9989 109.723L38.1386 111.719L48.2346 115.641L50.8045 116.639C51.5167 116.916 51.8252 115.768 51.1199 115.494Z" fill="#2F2E41"/>
<path d="M29.1846 75.1453C27.9722 75.1453 26.7871 74.7856 25.779 74.1115C24.7709 73.4374 23.9853 72.4793 23.5213 71.3584C23.0573 70.2374 22.9359 69.004 23.1725 67.814C23.409 66.624 23.9928 65.5309 24.8501 64.673C25.7074 63.8151 26.7997 63.2308 27.9887 62.9941C29.1778 62.7574 30.4104 62.8789 31.5305 63.3432C32.6506 63.8075 33.6079 64.5938 34.2815 65.6026C34.9551 66.6114 35.3146 67.7975 35.3146 69.0108C35.3127 70.6372 34.6663 72.1965 33.5171 73.3465C32.3679 74.4966 30.8098 75.1435 29.1846 75.1453ZM29.1846 64.0636C28.2069 64.0636 27.2511 64.3537 26.4382 64.8973C25.6252 65.4409 24.9916 66.2136 24.6174 67.1176C24.2433 68.0216 24.1454 69.0163 24.3361 69.9759C24.5269 70.9356 24.9977 71.8171 25.689 72.509C26.3804 73.2009 27.2613 73.6721 28.2202 73.863C29.1791 74.0538 30.1731 73.9559 31.0764 73.5814C31.9797 73.207 32.7518 72.5729 33.295 71.7593C33.8382 70.9458 34.1281 69.9893 34.1281 69.0108C34.1267 67.6991 33.6054 66.4417 32.6786 65.5142C31.7518 64.5867 30.4953 64.065 29.1846 64.0636V64.0636Z" fill="#2F2E41"/>
<path d="M249.612 25.7287V63.8776C243.555 65.4723 237.213 65.6553 231.074 64.4124C224.935 63.1695 219.163 60.5339 214.202 56.7082C209.24 52.8826 205.222 47.969 202.456 42.3454C199.69 36.7219 198.25 30.5382 198.246 24.2702C198.246 23.1515 198.291 22.0443 198.381 20.9488H220.855C221.932 20.9498 222.994 20.6854 223.945 20.1789C224.896 19.6725 225.708 18.9394 226.309 18.0446C226.911 17.1497 227.283 16.1205 227.392 15.0478C227.502 13.9751 227.346 12.8918 226.939 11.8936H235.783C237.599 11.8929 239.397 12.2503 241.075 12.9453C242.752 13.6402 244.277 14.6592 245.561 15.944C246.846 17.2288 247.864 18.7542 248.559 20.433C249.255 22.1119 249.612 23.9114 249.612 25.7287V25.7287Z" fill="#2A2B39"/>
<path d="M56.6705 22.5069C58.7669 22.5052 60.8345 22.9948 62.7077 23.9366C64.581 24.8783 66.2079 26.2459 67.4582 27.9299L75.2055 17.7925L51.9597 0L34.1807 23.2634L44.1995 30.932C45.2022 28.4435 46.9252 26.3118 49.1474 24.8105C51.3695 23.3093 53.9894 22.507 56.6705 22.5069V22.5069Z" fill="#23252F"/>
</g>
<defs>
<clipPath id="clip0_3351_114546">
<rect width="280" height="220" fill="white"/>
</clipPath>
</defs>
</svg>
