<svg width="24" height="24" viewBox="0 0 24 24" fill="none" xmlns="http://www.w3.org/2000/svg">
<path d="M11.9053 14.6251C12.6015 14.6251 13.2692 14.3485 13.7615 13.8562C14.2537 13.364 14.5303 12.6963 14.5303 12.0001C14.5303 11.9232 14.5268 11.847 14.5202 11.7718L11.677 14.615C11.7523 14.6216 11.8282 14.6251 11.9053 14.6251ZM20.5941 3.88038L19.5928 2.88007C19.5576 2.84493 19.51 2.8252 19.4603 2.8252C19.4106 2.8252 19.3629 2.84493 19.3277 2.88007L16.7655 5.44296C15.3521 4.72062 13.7633 4.35945 11.999 4.35945C7.49436 4.35945 4.13341 6.70554 1.91622 11.3977C1.8271 11.5864 1.78088 11.7926 1.78088 12.0012C1.78088 12.2099 1.8271 12.4161 1.91622 12.6048C2.80216 14.4709 3.86896 15.9666 5.11662 17.0919L2.63716 19.5704C2.60203 19.6056 2.58229 19.6532 2.58229 19.7029C2.58229 19.7526 2.60203 19.8003 2.63716 19.8355L3.63771 20.836C3.67287 20.8712 3.72054 20.8909 3.77025 20.8909C3.81996 20.8909 3.86763 20.8712 3.90279 20.836L20.5941 4.1457C20.6115 4.12828 20.6253 4.1076 20.6348 4.08484C20.6442 4.06208 20.649 4.03768 20.649 4.01304C20.649 3.9884 20.6442 3.964 20.6348 3.94124C20.6253 3.91848 20.6115 3.8978 20.5941 3.88038ZM7.78029 12.0001C7.78023 11.2876 7.96471 10.5872 8.31577 9.96724C8.66682 9.34724 9.17248 8.82874 9.78348 8.46225C10.3945 8.09576 11.09 7.89378 11.8023 7.87599C12.5145 7.85819 13.2193 8.02518 13.8478 8.3607L12.7083 9.50023C12.2487 9.35308 11.7575 9.33536 11.2885 9.44901C10.8195 9.56266 10.3909 9.80329 10.0497 10.1445C9.70851 10.4857 9.46788 10.9143 9.35423 11.3833C9.24058 11.8523 9.2583 12.3435 9.40545 12.803L8.26592 13.9426C7.94614 13.3451 7.7793 12.6777 7.78029 12.0001V12.0001Z" fill="#858C94"/>
<path d="M22.0818 11.3954C21.2568 9.65792 20.2749 8.24112 19.136 7.14502L15.7577 10.5235C16.0425 11.268 16.1056 12.0789 15.9394 12.8584C15.7733 13.6379 15.3849 14.3526 14.8214 14.9162C14.2578 15.4798 13.5431 15.8681 12.7636 16.0343C11.9841 16.2004 11.1731 16.1373 10.4287 15.8525L7.56323 18.718C8.89261 19.3332 10.3712 19.6408 11.999 19.6408C16.5037 19.6408 19.8646 17.2947 22.0818 12.6025C22.171 12.4137 22.2172 12.2076 22.2172 11.9989C22.2172 11.7902 22.171 11.5841 22.0818 11.3954V11.3954Z" fill="#858C94"/>
</svg>
