<svg width="24" height="24" viewBox="0 0 24 24" fill="none" xmlns="http://www.w3.org/2000/svg">
<g clip-path="url(#clip0_3917_12493)">
<path d="M9.99998 18.9997V13.9997H14V18.9997C14 19.5497 14.45 19.9997 15 19.9997H18C18.55 19.9997 19 19.5497 19 18.9997V11.9997H20.7C21.16 11.9997 21.38 11.4297 21.03 11.1297L12.67 3.59973C12.29 3.25973 11.71 3.25973 11.33 3.59973L2.96998 11.1297C2.62998 11.4297 2.83998 11.9997 3.29998 11.9997H4.99998V18.9997C4.99998 19.5497 5.44998 19.9997 5.99998 19.9997H8.99998C9.54998 19.9997 9.99998 19.5497 9.99998 18.9997Z" fill="url(#paint0_linear_3917_12493)"/>
</g>
<defs>
<linearGradient id="paint0_linear_3917_12493" x1="21.2023" y1="20.0402" x2="4.62962" y2="1.73102" gradientUnits="userSpaceOnUse">
<stop stop-color="#FF4D67"/>
<stop offset="1" stop-color="#FD788C"/>
</linearGradient>
<clipPath id="clip0_3917_12493">
<rect width="24" height="24" fill="white"/>
</clipPath>
</defs>
</svg>
