<svg width="198" height="190" viewBox="0 0 198 190" fill="none" xmlns="http://www.w3.org/2000/svg">
<path d="M95.6405 188.144C95.9176 188.395 96.2456 188.56 96.6031 188.674C97.7949 189.053 99.0683 188.655 100.292 188.752C100.423 188.764 100.557 188.78 100.689 188.789C100.829 188.8 101.065 188.893 101.202 188.798C101.326 188.687 101.286 188.436 101.308 188.297C101.329 188.166 101.342 188.032 101.362 187.903C101.544 186.689 102.218 185.538 102.117 184.29C102.087 183.916 102 183.559 101.819 183.232C101.637 182.903 101.304 182.49 100.965 182.307C100.168 181.877 99.3957 181.881 98.7444 182.406L98.6713 182.465C98.4182 182.673 98.2153 182.929 98.0584 183.214C97.8908 183.52 97.8439 183.817 97.7344 184.138C97.692 184.258 97.5714 184.354 97.4447 184.368C97.1073 184.402 96.8078 184.381 96.472 184.476C96.1583 184.565 95.8636 184.705 95.6033 184.904C95.5796 184.923 95.5546 184.942 95.5299 184.962C94.8727 185.478 94.6923 186.232 94.9327 187.105C95.0335 187.476 95.3605 187.893 95.6405 188.144Z" fill="#FF4D67" fill-opacity="0.5"/>
<path d="M177.936 167.247C178.144 167.965 178.53 168.59 179.018 169.16C180.647 171.058 183.233 171.718 185.214 173.169C185.424 173.325 185.636 173.494 185.849 173.649C186.077 173.814 186.381 174.22 186.714 174.202C187.042 174.143 187.238 173.674 187.421 173.462C187.594 173.261 187.757 173.047 187.927 172.847C189.512 170.973 191.868 169.721 193.007 167.493C193.349 166.824 193.576 166.126 193.611 165.378C193.647 164.627 193.514 163.575 193.13 162.908C192.226 161.338 190.906 160.533 189.247 160.742L189.06 160.767C188.411 160.853 187.797 161.076 187.231 161.396C186.623 161.742 186.232 162.197 185.709 162.628C185.51 162.789 185.204 162.825 184.974 162.715C184.363 162.42 183.876 162.069 183.205 161.877C182.578 161.699 181.929 161.628 181.277 161.694C181.217 161.701 181.154 161.707 181.091 161.715C179.43 161.904 178.331 162.996 177.823 164.735C177.605 165.472 177.724 166.525 177.936 167.247Z" fill="#FF4D67" fill-opacity="0.7"/>
<path d="M14.8451 163.667C14.4559 164.851 14.3988 166.072 14.5347 167.316C14.9912 171.46 17.928 174.8 19.288 178.66C19.4302 179.073 19.5631 179.504 19.7116 179.918C19.8686 180.359 19.9053 181.203 20.3801 181.493C20.8877 181.721 21.5976 181.259 22.049 181.139C22.4768 181.025 22.9024 180.885 23.324 180.77C27.2684 179.682 31.6868 180.175 35.3501 178.181C36.4496 177.583 37.4188 176.835 38.1707 175.839C38.9262 174.841 39.7334 173.268 39.8321 171.988C40.0643 168.977 39.006 166.63 36.5257 165.356L36.2459 165.214C35.272 164.723 34.2173 164.452 33.1366 164.36C31.9759 164.264 31.009 164.522 29.884 164.623C29.4596 164.657 29.0053 164.419 28.7911 164.052C28.2289 163.071 27.8891 162.129 27.1453 161.235C26.4498 160.4 25.6241 159.692 24.6651 159.168C24.5761 159.122 24.4844 159.071 24.389 159.023C21.9264 157.72 19.3879 158.19 17.0525 160.104C16.0604 160.913 15.2328 162.473 14.8451 163.667Z" fill="#FF4D67" fill-opacity="0.5"/>
<path d="M151.198 118.204C150.966 118.783 150.899 119.391 150.927 120.015C151.023 122.098 152.383 123.858 152.939 125.827C152.997 126.037 153.05 126.256 153.111 126.468C153.175 126.693 153.166 127.115 153.394 127.275C153.64 127.405 154.009 127.197 154.238 127.152C154.455 127.108 154.672 127.052 154.886 127.008C156.889 126.59 159.078 126.976 160.969 126.097C161.537 125.834 162.044 125.491 162.451 125.018C162.86 124.544 163.312 123.785 163.402 123.149C163.614 121.654 163.16 120.449 161.963 119.735L161.828 119.655C161.357 119.38 160.839 119.211 160.303 119.13C159.727 119.046 159.236 119.144 158.672 119.158C158.459 119.162 158.24 119.029 158.144 118.839C157.895 118.332 157.755 117.851 157.413 117.381C157.092 116.942 156.702 116.563 156.241 116.271C156.198 116.245 156.153 116.217 156.107 116.19C154.92 115.462 153.638 115.616 152.412 116.497C151.892 116.869 151.429 117.621 151.198 118.204Z" fill="#FF4D67" fill-opacity="0.3"/>
<path d="M28.73 106.764C29.0608 106.938 29.4194 107.016 29.794 107.038C31.0428 107.109 32.1772 106.407 33.3868 106.197C33.5161 106.175 33.6502 106.158 33.7801 106.134C33.9185 106.11 34.1699 106.141 34.2794 106.015C34.372 105.876 34.2709 105.643 34.258 105.504C34.2456 105.371 34.2253 105.239 34.2123 105.108C34.0869 103.887 34.4532 102.605 34.0457 101.421C33.9237 101.066 33.7508 100.742 33.4937 100.47C33.236 100.197 32.8108 99.8798 32.4372 99.7868C31.5581 99.568 30.8109 99.7641 30.3104 100.434L30.2544 100.51C30.0608 100.774 29.9278 101.072 29.8467 101.387C29.7606 101.726 29.7888 102.025 29.7625 102.363C29.7514 102.49 29.6582 102.612 29.5391 102.657C29.2208 102.775 28.9254 102.828 28.6237 103.004C28.342 103.168 28.0913 103.377 27.8887 103.635C27.8704 103.659 27.8509 103.683 27.8321 103.709C27.3238 104.373 27.3362 105.147 27.7861 105.933C27.9758 106.267 28.3962 106.59 28.73 106.764Z" fill="#FF4D67" fill-opacity="0.7"/>
<rect x="59" y="54" width="81.4874" height="81.4874" rx="40.7437" fill="url(#paint0_linear_3344_70850)"/>
<path fill-rule="evenodd" clip-rule="evenodd" d="M99.2425 81.4427C100.016 80.9003 100.81 80.4213 101.616 80.0109C105.335 78.1179 109.745 77.5228 113.527 79.7062C117.308 81.8896 118.998 86.0058 119.218 90.1733C119.44 94.3774 118.236 99.0899 115.732 103.427L115.732 103.427C113.228 107.764 109.749 111.163 105.997 113.073C103.204 114.494 100.023 115.184 97.0096 114.515C96.7375 114.523 96.4599 114.497 96.1822 114.433C91.021 113.246 86.0228 109.074 82.7622 103.427L82.7622 103.427C80.2583 99.0899 79.0539 94.3774 79.276 90.1733C79.4961 86.0058 81.1855 81.8896 84.9673 79.7062L84.9673 79.7062C89.5481 77.0615 94.924 78.4347 99.2425 81.4427ZM88.4354 100.293C88.7161 96.807 89.8862 93.1126 91.8814 89.6568C92.6341 88.3531 93.4749 87.1341 94.3848 86.0148C91.7691 84.5393 89.5367 84.5506 88.2073 85.3181L86.5873 82.5122L88.2073 85.3181C86.9527 86.0424 85.8957 87.6993 85.747 90.5151C85.6002 93.2943 86.4044 96.7752 88.374 100.187M88.4354 100.293C88.4149 100.257 88.3944 100.222 88.374 100.187ZM97.3265 107.765C98.5811 108.49 100.545 108.577 103.058 107.298C105.538 106.035 108.15 103.598 110.12 100.187C112.09 96.7752 112.894 93.2944 112.747 90.5152C112.598 87.6993 111.541 86.0424 110.287 85.3181L111.899 82.5245L110.287 85.3181C109.032 84.5937 107.068 84.5068 104.556 85.7859C102.075 87.0483 99.4629 89.4852 97.4933 92.8968L94.6873 91.2768L97.4933 92.8968C95.5236 96.3083 94.7194 99.7892 94.8662 102.568C95.015 105.384 96.072 107.041 97.3265 107.765Z" fill="white"/>
<path d="M170.972 62.6855C171.779 63.7939 172.832 64.6301 174.03 65.308C178.023 67.5643 182.892 67.0893 187.212 68.356C187.672 68.4945 188.142 68.6529 188.607 68.7865C189.102 68.93 189.879 69.4396 190.443 69.2021C190.972 68.8953 191.017 67.9651 191.2 67.4851C191.373 67.0299 191.521 66.5599 191.689 66.1096C193.253 61.8889 196.534 58.262 197.108 53.7098C197.281 52.3441 197.236 50.9982 196.831 49.687C196.425 48.3708 195.539 46.639 194.46 45.7286C191.922 43.5861 189.146 43.022 186.415 44.4173L186.108 44.5757C185.044 45.1299 184.124 45.8968 183.347 46.8023C182.516 47.7771 182.125 48.8063 181.492 49.875C181.249 50.2758 180.744 50.5282 180.279 50.4836C179.042 50.355 177.983 50.0532 176.707 50.1422C175.514 50.2263 174.352 50.5084 173.268 51.0279C173.169 51.0774 173.065 51.1269 172.961 51.1813C170.215 52.542 169.003 55.1101 169.211 58.4253C169.295 59.8305 170.156 61.5722 170.972 62.6855Z" fill="#FF4D67" fill-opacity="0.7"/>
<path d="M3.76065 39.8967C3.52885 40.4751 3.46161 41.0829 3.49 41.7077C3.5863 43.7902 4.94576 45.5499 5.50197 47.519C5.55983 47.7296 5.61247 47.9489 5.67343 48.1602C5.73776 48.3854 5.72928 48.8076 5.95703 48.9674C6.20308 49.0971 6.57197 48.8894 6.80099 48.8439C7.01809 48.8006 7.23493 48.7441 7.44894 48.7001C9.45169 48.2821 11.6408 48.6686 13.532 47.7895C14.0996 47.5262 14.607 47.1838 15.0138 46.7107C15.4224 46.2365 15.8751 45.477 15.9649 44.8417C16.1764 43.3467 15.7227 42.1417 14.5255 41.4274L14.3904 41.3476C13.92 41.0719 13.4023 40.9029 12.866 40.8227C12.2898 40.7382 11.7991 40.8364 11.2346 40.8509C11.0217 40.8544 10.8026 40.7211 10.7074 40.5312C10.458 40.0239 10.3183 39.5433 9.97549 39.0734C9.65494 38.6346 9.26536 38.2551 8.80348 37.9635C8.76052 37.9373 8.71636 37.9093 8.67029 37.8825C7.48281 37.154 6.2012 37.3079 4.97512 38.1891C4.45445 38.561 3.99197 39.3134 3.76065 39.8967Z" fill="#FF4D67" fill-opacity="0.7"/>
<path d="M63.2417 23.2019C63.7578 23.9051 64.4307 24.4345 65.1944 24.8628C67.7414 26.2881 70.8385 25.9731 73.5906 26.7679C73.8838 26.8548 74.1834 26.9544 74.4797 27.0382C74.795 27.1282 75.2907 27.4505 75.649 27.2978C75.9851 27.1012 76.011 26.5092 76.1262 26.2033C76.2353 25.9131 76.3285 25.6136 76.4344 25.3266C77.4183 22.6367 79.4964 20.32 79.8498 17.4217C79.9564 16.5522 79.9245 15.6959 79.6629 14.8625C79.4013 14.026 78.8331 12.9263 78.1443 12.3497C76.5234 10.993 74.7555 10.6413 73.021 11.5364L72.8262 11.638C72.1507 11.9934 71.567 12.4839 71.0751 13.0621C70.5486 13.6846 70.3026 14.3406 69.9023 15.0223C69.7491 15.278 69.4286 15.4399 69.1325 15.4128C68.345 15.3342 67.6703 15.1449 66.8582 15.2049C66.0996 15.2615 65.3604 15.4441 64.6722 15.7775C64.6093 15.8093 64.5433 15.841 64.4773 15.8759C62.7333 16.749 61.9686 18.3864 62.1096 20.4955C62.1668 21.3895 62.7192 22.4956 63.2417 23.2019Z" fill="#FF4D67" fill-opacity="0.5"/>
<path d="M128.226 5.49094C128.164 5.98554 128.235 6.46952 128.384 6.94722C128.882 8.53908 130.291 9.62453 131.121 11.0352C131.209 11.1864 131.294 11.3454 131.384 11.4965C131.48 11.6577 131.559 11.9861 131.768 12.0635C131.985 12.1139 132.228 11.8783 132.396 11.7965C132.555 11.7189 132.711 11.6312 132.868 11.5536C134.333 10.8234 136.105 10.6778 137.39 9.6134C137.776 9.29433 138.099 8.92634 138.317 8.47766C138.537 8.02767 138.733 7.34804 138.674 6.83822C138.534 5.63848 137.938 4.79824 136.866 4.4887L136.746 4.45436C136.326 4.33663 135.891 4.31103 135.459 4.35787C134.996 4.40955 134.637 4.58522 134.203 4.71107C134.039 4.75703 133.842 4.69838 133.73 4.57084C133.434 4.22895 133.228 3.88544 132.867 3.59144C132.53 3.31704 132.152 3.10253 131.735 2.97069C131.697 2.95919 131.657 2.94646 131.616 2.93504C130.549 2.61262 129.588 2.99201 128.819 3.92288C128.491 4.31646 128.286 4.99256 128.226 5.49094Z" fill="#FF4D67" fill-opacity="0.3"/>
<defs>
<linearGradient id="paint0_linear_3344_70850" x1="140.487" y1="135.685" x2="59" y2="54.198" gradientUnits="userSpaceOnUse">
<stop stop-color="#FF4D67"/>
<stop offset="1" stop-color="#FD788C"/>
</linearGradient>
</defs>
</svg>
