<svg width="18" height="18" viewBox="0 0 18 18" fill="none" xmlns="http://www.w3.org/2000/svg">
<path fill-rule="evenodd" clip-rule="evenodd" d="M8.88558 2.19653C9.22955 1.95548 9.58222 1.74256 9.94049 1.5602C11.5935 0.718831 13.5532 0.454357 15.234 1.42477C16.9148 2.39518 17.6657 4.2246 17.7635 6.07681C17.8622 7.94529 17.3269 10.0398 16.2141 11.9672L16.2141 11.9672C15.1013 13.8947 13.5551 15.4055 11.8876 16.2543C10.6464 16.886 9.23227 17.1925 7.89314 16.8952C7.77221 16.8989 7.64885 16.8873 7.52541 16.8589C5.23155 16.3315 3.01013 14.4773 1.56096 11.9672L1.56096 11.9672C0.448132 10.0398 -0.0871517 7.94529 0.0115519 6.07681C0.109396 4.2246 0.860225 2.39518 2.54104 1.42477L2.54104 1.42477C4.57695 0.249352 6.96621 0.859666 8.88558 2.19653ZM4.08242 10.5742C4.20717 9.0251 4.72721 7.38315 5.61396 5.84724C5.94849 5.26781 6.32219 4.72603 6.72658 4.22858C5.56404 3.5728 4.57186 3.57782 3.98103 3.91893L3.26103 2.67185L3.98103 3.91893C3.42343 4.24086 2.95365 4.97727 2.88754 6.22874C2.82229 7.46394 3.17971 9.011 4.05511 10.5272M4.08242 10.5742C4.07329 10.5586 4.06419 10.543 4.05511 10.5272L4.08242 10.5742ZM8.03402 13.8955C8.59162 14.2175 9.46427 14.2561 10.5811 13.6876C11.6835 13.1265 12.8446 12.0435 13.72 10.5272C14.5954 9.011 14.9528 7.46394 14.8875 6.22874C14.8214 4.97727 14.3516 4.24085 13.794 3.91893L14.5109 2.67734L13.794 3.91893C13.2364 3.597 12.3638 3.55836 11.2469 4.12684C10.1446 4.68794 8.98351 5.771 8.10812 7.28723L6.86104 6.56724L8.10812 7.28724C7.23272 8.80346 6.8753 10.3505 6.94055 11.5857C7.00665 12.8372 7.47642 13.5736 8.03402 13.8955Z" fill="white"/>
</svg>
