<svg xmlns="http://www.w3.org/2000/svg" xmlns:xlink="http://www.w3.org/1999/xlink" width="70" zoomAndPan="magnify" viewBox="0 0 52.5 74.999997" height="100" preserveAspectRatio="xMidYMid meet" version="1.0"><defs><clipPath id="id1"><path d="M 0.0898438 21.578125 L 52.003906 21.578125 L 52.003906 41 L 0.0898438 41 Z M 0.0898438 21.578125 " clip-rule="nonzero"/></clipPath><clipPath id="id2"><path d="M 7.367188 34.328125 L 10.875 34.328125 L 10.875 53.828125 L 7.367188 53.828125 Z M 7.367188 34.328125 " clip-rule="nonzero"/></clipPath></defs><g clip-path="url(#id1)"><path fill="#858c94" d="M 9.582031 27.75 L 9.582031 27.746094 M 52.402344 31.265625 L 52.410156 31.261719 L 52.394531 31.261719 L 40.558594 26.878906 L 40.550781 26.871094 L 40.542969 26.875 L 32.367188 23.847656 L 32.363281 23.847656 L 32.359375 23.839844 L 32.351562 23.84375 L 26.246094 21.582031 L 26.25 21.578125 L 16.449219 25.207031 L 9.582031 27.746094 L 0.0898438 31.261719 L 12.449219 35.835938 L 12.957031 36.023438 L 20.113281 38.671875 L 26.25 40.945312 L 33.242188 38.355469 L 39.539062 36.023438 L 41.175781 35.417969 L 52.398438 31.265625 L 52.40625 31.265625 L 52.402344 31.265625 " fill-opacity="1" fill-rule="nonzero"/></g><path fill="#858c94" d="M 12.957031 37.128906 L 12.957031 42.308594 L 12.960938 42.308594 C 12.960938 42.3125 12.957031 42.316406 12.957031 42.320312 C 12.957031 44.476562 14.433594 46.429688 16.816406 47.847656 C 19.222656 49.277344 22.558594 50.164062 26.25 50.164062 C 26.722656 50.164062 27.191406 50.152344 27.65625 50.121094 C 31.226562 49.898438 34.375 48.84375 36.535156 47.289062 C 38.410156 45.9375 39.539062 44.207031 39.539062 42.320312 C 39.539062 42.316406 39.539062 42.3125 39.539062 42.308594 L 39.539062 37.128906 L 26.25 42.046875 L 12.957031 37.128906 " fill-opacity="1" fill-rule="nonzero"/><g clip-path="url(#id2)"><path fill="#858c94" d="M 10.390625 48.824219 L 10.382812 48.753906 L 9.949219 44.3125 L 9.933594 44.121094 L 9.722656 41.980469 L 9.898438 41.980469 L 9.898438 39.601562 C 10.140625 39.390625 10.289062 39.078125 10.289062 38.734375 C 10.289062 38.558594 10.25 38.390625 10.179688 38.238281 C 10.0625 37.996094 9.867188 37.796875 9.621094 37.679688 L 9.621094 34.789062 L 8.578125 34.40625 L 8.578125 37.691406 C 8.195312 37.882812 7.929688 38.277344 7.929688 38.734375 C 7.929688 39.078125 8.082031 39.390625 8.320312 39.601562 L 8.320312 41.980469 L 8.511719 41.980469 L 8.386719 43.261719 L 8.230469 44.851562 L 7.84375 48.777344 L 7.839844 48.789062 L 7.628906 50.917969 L 7.445312 52.820312 C 7.4375 52.863281 7.4375 52.910156 7.445312 52.949219 C 7.507812 53.472656 8.304688 53.867188 9.222656 53.832031 C 10.144531 53.796875 10.839844 53.34375 10.777344 52.820312 L 10.390625 48.824219 " fill-opacity="1" fill-rule="nonzero"/></g></svg>