<svg width="18" height="18" viewBox="0 0 18 18" fill="none" xmlns="http://www.w3.org/2000/svg">
<path d="M11.65 1.97999L6.65 0.229993C6.23 0.0799933 5.77 0.0799933 5.35 0.219993L1.36 1.55999C0.55 1.83999 0 2.59999 0 3.45999V15.31C0 16.72 1.41 17.68 2.72 17.17L5.65 16.03C5.87 15.94 6.12 15.94 6.34 16.02L11.34 17.77C11.76 17.92 12.22 17.92 12.64 17.78L16.63 16.44C17.44 16.17 17.99 15.4 17.99 14.54V2.68999C17.99 1.27999 16.58 0.319993 15.27 0.829993L12.34 1.96999C12.12 2.04999 11.88 2.05999 11.65 1.97999V1.97999ZM12 15.89L6 13.78V2.10999L12 4.21999V15.89Z" fill="url(#paint0_linear_3378_6609)"/>
<defs>
<linearGradient id="paint0_linear_3378_6609" x1="17.99" y1="17.9269" x2="0.22381" y2="-0.06167" gradientUnits="userSpaceOnUse">
<stop stop-color="#FF4D67"/>
<stop offset="1" stop-color="#FD788C"/>
</linearGradient>
</defs>
</svg>
