<svg width="338" height="327" viewBox="0 0 338 327" fill="none" xmlns="http://www.w3.org/2000/svg">
<path d="M163.228 323.243C163.704 323.674 164.268 323.956 164.882 324.152C166.93 324.805 169.117 324.12 171.22 324.287C171.444 324.307 171.675 324.335 171.901 324.351C172.142 324.37 172.547 324.529 172.783 324.366C172.996 324.175 172.928 323.744 172.966 323.506C173.001 323.281 173.025 323.051 173.059 322.828C173.371 320.742 174.528 318.765 174.356 316.622C174.304 315.979 174.155 315.366 173.843 314.803C173.531 314.238 172.959 313.529 172.377 313.215C171.007 312.475 169.68 312.482 168.561 313.384L168.435 313.486C168 313.842 167.652 314.282 167.382 314.772C167.094 315.299 167.014 315.808 166.826 316.359C166.753 316.566 166.546 316.73 166.328 316.754C165.748 316.814 165.234 316.777 164.657 316.94C164.118 317.093 163.611 317.334 163.164 317.676C163.124 317.708 163.081 317.741 163.038 317.776C161.909 318.663 161.599 319.957 162.012 321.457C162.185 322.094 162.747 322.81 163.228 323.243Z" fill="#FF4D67" fill-opacity="0.5"/>
<path d="M304.616 287.34C304.974 288.574 305.636 289.647 306.475 290.626C309.275 293.887 313.717 295.021 317.12 297.514C317.481 297.783 317.845 298.072 318.212 298.338C318.602 298.622 319.125 299.319 319.697 299.289C320.262 299.188 320.598 298.382 320.912 298.018C321.21 297.672 321.49 297.305 321.782 296.962C324.505 293.741 328.552 291.59 330.509 287.762C331.097 286.613 331.487 285.413 331.548 284.128C331.61 282.839 331.381 281.031 330.721 279.884C329.167 277.187 326.9 275.805 324.049 276.164L323.728 276.206C322.614 276.355 321.558 276.738 320.585 277.288C319.542 277.882 318.869 278.664 317.97 279.404C317.629 279.68 317.104 279.742 316.708 279.554C315.659 279.047 314.822 278.443 313.669 278.115C312.591 277.809 311.476 277.686 310.356 277.799C310.253 277.811 310.145 277.821 310.037 277.836C307.183 278.16 305.296 280.037 304.422 283.024C304.048 284.289 304.252 286.099 304.616 287.34Z" fill="#FF4D67" fill-opacity="0.7"/>
<path d="M24.4172 281.189C23.7484 283.223 23.6504 285.322 23.8839 287.458C24.6682 294.578 29.7137 300.316 32.0504 306.947C32.2947 307.657 32.523 308.397 32.7781 309.109C33.0478 309.867 33.1108 311.317 33.9266 311.815C34.7987 312.206 36.0184 311.413 36.7938 311.208C37.5289 311.012 38.2601 310.771 38.9844 310.573C45.7611 308.703 53.3521 309.551 59.6459 306.124C61.5349 305.097 63.2001 303.813 64.4918 302.102C65.7898 300.386 67.1766 297.683 67.3462 295.485C67.7453 290.312 65.9269 286.279 61.6657 284.091L61.185 283.846C59.5117 283.004 57.6997 282.537 55.843 282.379C53.8489 282.215 52.1876 282.659 50.2549 282.831C49.5256 282.89 48.7452 282.48 48.3772 281.85C47.4113 280.165 46.8275 278.547 45.5496 277.01C44.3547 275.576 42.936 274.359 41.2886 273.46C41.1355 273.38 40.978 273.293 40.8142 273.211C36.5833 270.972 32.2219 271.779 28.2096 275.068C26.5052 276.457 25.0833 279.138 24.4172 281.189Z" fill="#FF4D67" fill-opacity="0.5"/>
<path d="M258.679 203.082C258.28 204.075 258.165 205.12 258.214 206.193C258.379 209.771 260.715 212.794 261.67 216.177C261.77 216.539 261.86 216.916 261.965 217.279C262.075 217.666 262.061 218.391 262.452 218.666C262.875 218.888 263.509 218.532 263.902 218.453C264.275 218.379 264.648 218.282 265.015 218.206C268.456 217.488 272.217 218.152 275.466 216.642C276.442 216.189 277.313 215.601 278.012 214.788C278.714 213.974 279.492 212.669 279.646 211.577C280.01 209.009 279.23 206.939 277.173 205.711L276.941 205.574C276.133 205.101 275.244 204.81 274.322 204.673C273.332 204.527 272.489 204.696 271.519 204.721C271.154 204.727 270.777 204.498 270.613 204.172C270.185 203.3 269.945 202.475 269.356 201.667C268.805 200.913 268.136 200.261 267.343 199.76C267.269 199.715 267.193 199.667 267.114 199.621C265.074 198.37 262.872 198.634 260.765 200.148C259.871 200.787 259.076 202.079 258.679 203.082Z" fill="#FF4D67" fill-opacity="0.3"/>
<path d="M48.2722 183.426C48.8405 183.726 49.4566 183.859 50.1002 183.897C52.2457 184.02 54.1946 182.813 56.2728 182.452C56.495 182.415 56.7253 182.385 56.9485 182.345C57.1862 182.303 57.6183 182.356 57.8063 182.14C57.9655 181.901 57.7919 181.501 57.7696 181.261C57.7483 181.034 57.7135 180.806 57.6911 180.582C57.4757 178.484 58.105 176.28 57.4049 174.248C57.1953 173.638 56.8983 173.081 56.4565 172.614C56.0138 172.144 55.2832 171.599 54.6414 171.439C53.1311 171.064 51.8473 171.4 50.9875 172.552L50.8912 172.682C50.5585 173.135 50.3302 173.648 50.1908 174.189C50.0428 174.771 50.0913 175.284 50.046 175.865C50.027 176.083 49.867 176.294 49.6622 176.371C49.1155 176.573 48.6078 176.665 48.0895 176.967C47.6055 177.249 47.1749 177.608 46.8268 178.05C46.7954 178.091 46.7619 178.134 46.7295 178.178C45.8562 179.318 45.8776 180.649 46.6505 181.999C46.9765 182.573 47.6987 183.127 48.2722 183.426Z" fill="#FF4D67" fill-opacity="0.7"/>
<rect x="100" y="92" width="140" height="140" rx="70" fill="url(#paint0_linear_3344_71471)"/>
<path fill-rule="evenodd" clip-rule="evenodd" d="M169.555 139.432C170.893 138.494 172.264 137.666 173.657 136.957C180.086 133.685 187.707 132.657 194.243 136.43C200.78 140.204 203.7 147.319 204.08 154.522C204.464 161.788 202.383 169.933 198.055 177.429L198.055 177.429C193.727 184.925 187.714 190.8 181.229 194.101C176.403 196.557 170.903 197.749 165.696 196.593C165.225 196.608 164.746 196.563 164.265 196.452C155.345 194.401 146.706 187.19 141.07 177.429L141.07 177.429C136.743 169.933 134.661 161.788 135.045 154.522C135.425 147.319 138.345 140.204 144.882 136.43L144.882 136.43C152.799 131.859 162.091 134.233 169.555 139.432ZM150.876 172.012C151.361 165.987 153.384 159.602 156.832 153.629C158.133 151.376 159.586 149.269 161.159 147.334C156.638 144.784 152.779 144.803 150.482 146.13L147.682 141.28L150.482 146.13C148.313 147.382 146.486 150.246 146.229 155.113C145.976 159.916 147.366 165.932 150.77 171.829M150.876 172.012C150.841 171.951 150.805 171.89 150.77 171.829L150.876 172.012ZM166.243 184.928C168.412 186.18 171.806 186.33 176.149 184.119C180.436 181.937 184.951 177.725 188.355 171.829C191.76 165.932 193.15 159.916 192.896 155.113C192.639 150.246 190.812 147.382 188.643 146.13L191.431 141.302L188.643 146.13C186.475 144.878 183.081 144.728 178.738 146.938C174.451 149.121 169.936 153.332 166.532 159.229L161.682 156.429L166.532 159.229C163.127 165.125 161.737 171.142 161.991 175.945C162.248 180.812 164.075 183.676 166.243 184.928Z" fill="white"/>
<path d="M292.652 107.697C294.038 109.602 295.848 111.038 297.906 112.203C304.766 116.079 313.131 115.263 320.552 117.44C321.343 117.678 322.15 117.95 322.95 118.179C323.8 118.426 325.134 119.301 326.103 118.893C327.013 118.366 327.09 116.768 327.404 115.943C327.702 115.161 327.957 114.354 328.246 113.58C330.932 106.329 336.568 100.097 337.554 92.2765C337.852 89.9302 337.775 87.6179 337.078 85.3652C336.381 83.1039 334.86 80.1285 333.006 78.5643C328.645 74.8834 323.876 73.9143 319.184 76.3116L318.657 76.5836C316.829 77.5357 315.248 78.8534 313.913 80.4091C312.485 82.0838 311.813 83.852 310.725 85.6882C310.309 86.3768 309.441 86.8103 308.642 86.7338C306.517 86.5128 304.698 85.9942 302.505 86.1473C300.456 86.2918 298.458 86.7763 296.596 87.6689C296.426 87.754 296.248 87.839 296.069 87.9325C291.351 90.2703 289.268 94.6823 289.626 100.378C289.77 102.792 291.249 105.785 292.652 107.697Z" fill="#FF4D67" fill-opacity="0.7"/>
<path d="M5.37335 68.545C4.9751 69.5387 4.85957 70.583 4.90835 71.6564C5.0738 75.2343 7.40943 78.2575 8.36503 81.6405C8.46444 82.0024 8.55487 82.3791 8.65961 82.7422C8.77013 83.129 8.75556 83.8545 9.14685 84.129C9.56957 84.3518 10.2033 83.995 10.5968 83.9168C10.9698 83.8424 11.3424 83.7454 11.71 83.6697C15.1509 82.9516 18.9118 83.6156 22.1611 82.1053C23.1363 81.6529 24.008 81.0646 24.7068 80.2519C25.4089 79.4371 26.1867 78.1322 26.341 77.0408C26.7043 74.4723 25.9249 72.4021 23.868 71.1748L23.6359 71.0377C22.8276 70.5641 21.9383 70.2738 21.0168 70.1359C20.0269 69.9908 19.1839 70.1595 18.214 70.1843C17.8483 70.1904 17.4718 69.9613 17.3082 69.6352C16.8797 68.7636 16.6397 67.9379 16.0508 67.1305C15.5001 66.3767 14.8307 65.7247 14.0372 65.2236C13.9634 65.1787 13.8875 65.1305 13.8084 65.0844C11.7682 63.833 9.56635 64.0973 7.45987 65.6112C6.56532 66.2502 5.77076 67.5428 5.37335 68.545Z" fill="#FF4D67" fill-opacity="0.7"/>
<path d="M107.565 39.8622C108.452 41.0703 109.608 41.9798 110.92 42.7156C115.296 45.1644 120.617 44.6232 125.345 45.9887C125.849 46.1381 126.364 46.3091 126.873 46.453C127.414 46.6077 128.266 47.1614 128.882 46.8992C129.459 46.5614 129.503 45.5442 129.701 45.0186C129.889 44.5201 130.049 44.0056 130.231 43.5125C131.921 38.891 135.492 34.9109 136.099 29.9314C136.282 28.4376 136.227 26.9663 135.778 25.5346C135.328 24.0974 134.352 22.208 133.169 21.2175C130.384 18.8865 127.346 18.2823 124.367 19.8201L124.032 19.9946C122.871 20.6053 121.868 21.4479 121.023 22.4414C120.119 23.5108 119.696 24.6378 119.008 25.8092C118.745 26.2484 118.195 26.5266 117.686 26.48C116.333 26.3449 115.174 26.0197 113.778 26.1228C112.475 26.2201 111.205 26.5337 110.023 27.1066C109.915 27.1612 109.801 27.2157 109.688 27.2757C106.692 28.7757 105.378 31.5888 105.62 35.2124C105.718 36.7483 106.667 38.6487 107.565 39.8622Z" fill="#FF4D67" fill-opacity="0.5"/>
<path d="M219.211 9.43374C219.105 10.2835 219.228 11.115 219.484 11.9357C220.338 14.6706 222.76 16.5355 224.186 18.9591C224.337 19.2189 224.483 19.492 224.638 19.7517C224.802 20.0286 224.938 20.5929 225.297 20.7258C225.669 20.8123 226.087 20.4075 226.376 20.2671C226.649 20.1338 226.918 19.983 227.187 19.8498C229.703 18.5952 232.748 18.3451 234.956 16.5164C235.619 15.9682 236.174 15.336 236.549 14.5651C236.927 13.792 237.264 12.6243 237.162 11.7484C236.921 9.68723 235.897 8.24365 234.056 7.71184L233.849 7.65284C233.127 7.45058 232.38 7.4066 231.639 7.48707C230.844 7.57585 230.226 7.87767 229.48 8.09388C229.198 8.17284 228.861 8.07207 228.668 7.85296C228.159 7.26557 227.806 6.67541 227.186 6.17029C226.607 5.69887 225.956 5.33032 225.241 5.10381C225.174 5.08406 225.106 5.06218 225.035 5.04256C223.202 4.48863 221.552 5.14045 220.23 6.73973C219.668 7.41593 219.315 8.57751 219.211 9.43374Z" fill="#FF4D67" fill-opacity="0.3"/>
<defs>
<linearGradient id="paint0_linear_3344_71471" x1="240" y1="232.34" x2="100" y2="92.3401" gradientUnits="userSpaceOnUse">
<stop stop-color="#FF4D67"/>
<stop offset="1" stop-color="#FD788C"/>
</linearGradient>
</defs>
</svg>
