<svg width="18" height="18" viewBox="0 0 18 18" fill="none" xmlns="http://www.w3.org/2000/svg">
<path d="M16.229 12.2598L13.689 11.9698C13.079 11.8998 12.479 12.1098 12.049 12.5398L10.209 14.3798C7.379 12.9398 5.059 10.6298 3.619 7.78977L5.469 5.93976C5.899 5.50977 6.109 4.90977 6.039 4.29977L5.749 1.77977C5.629 0.769766 4.779 0.00976562 3.759 0.00976562H2.029C0.899003 0.00976562 -0.0409969 0.949766 0.0290031 2.07977C0.559003 10.6198 7.389 17.4398 15.919 17.9698C17.049 18.0398 17.989 17.0998 17.989 15.9698V14.2398C17.999 13.2298 17.239 12.3798 16.229 12.2598Z" fill="#858C94"/>
</svg>
