<svg width="310" height="220" viewBox="0 0 310 220" fill="none" xmlns="http://www.w3.org/2000/svg">
<g clip-path="url(#clip0_3344_71333)">
<path d="M20.9804 220H289.004C289.14 220 289.271 219.946 289.367 219.85C289.463 219.754 289.517 219.624 289.517 219.488C289.517 219.352 289.463 219.222 289.367 219.126C289.271 219.03 289.14 218.977 289.004 218.977H20.9804C20.8445 218.977 20.7143 219.03 20.6182 219.126C20.5222 219.222 20.4682 219.352 20.4682 219.488C20.4682 219.624 20.5222 219.754 20.6182 219.85C20.7143 219.946 20.8445 220 20.9804 220V220Z" fill="#CCCCCC"/>
<path d="M243.088 180.701C239.123 180.701 235.09 180.613 230.99 180.436L231.034 179.416C261.634 180.739 288.633 177.081 309.118 168.835L309.5 169.782C291.631 176.975 268.855 180.701 243.088 180.701Z" fill="#F0F0F0"/>
<path d="M219.063 182.233C215.098 182.233 211.066 182.144 206.965 181.968L207.009 180.947C237.609 182.271 264.609 178.613 285.093 170.367L285.475 171.314C267.606 178.507 244.831 182.233 219.063 182.233Z" fill="#F0F0F0"/>
<path d="M223.713 150.77C204.15 150.77 182.891 147.866 161.774 142.281C135.661 135.376 111.718 124.952 92.5338 112.138L93.1019 111.289C112.194 124.042 136.031 134.417 162.036 141.294C185.536 147.509 209.213 150.389 230.498 149.629L230.535 150.649C228.287 150.73 226.013 150.77 223.713 150.77Z" fill="#F0F0F0"/>
<path d="M268.594 144.348L268.267 143.381C285.763 137.471 296.707 127.952 299.914 115.851C303.991 100.467 295.134 82.6159 274.975 65.5847C254.712 48.4671 225.494 34.2637 192.7 25.5916L192.962 24.6042C225.899 33.3145 255.26 47.5915 275.635 64.8051C296.113 82.105 305.086 100.326 300.903 116.112C297.604 128.56 286.431 138.324 268.594 144.348Z" fill="#F0F0F0"/>
<path d="M305.789 137.683C301.638 127.467 292.288 118.809 281.276 118.071C288.173 127.883 291.374 139.816 290.311 151.759C289.884 156.363 288.93 161.44 291.521 165.272C293.133 167.656 295.892 169.072 298.71 169.664C301.529 170.257 304.444 170.118 307.32 169.978L307.974 170.276C309.679 159.383 309.94 147.898 305.789 137.683Z" fill="#F2F2F2"/>
<path d="M281.23 118.297C288.87 123.301 294.737 130.582 297.999 139.107C298.733 140.929 299.176 142.856 299.31 144.817C299.379 146.73 298.933 148.628 298.02 150.311C297.2 151.898 296.177 153.427 295.757 155.185C295.556 156.088 295.548 157.024 295.733 157.931C295.919 158.837 296.295 159.694 296.836 160.446C298.135 162.353 300.042 163.681 301.952 164.914C304.073 166.283 306.298 167.672 307.637 169.882C307.799 170.15 308.205 169.883 308.043 169.616C305.715 165.771 301.028 164.487 298.089 161.249C296.717 159.739 295.793 157.806 296.142 155.73C296.448 153.915 297.501 152.338 298.345 150.738C299.261 149.109 299.763 147.28 299.807 145.412C299.774 143.452 299.406 141.511 298.721 139.673C297.243 135.512 295.12 131.608 292.429 128.105C289.379 124.09 285.665 120.626 281.446 117.862C281.185 117.691 280.97 118.128 281.23 118.297V118.297Z" fill="white"/>
<path d="M298.542 149.561C295.5 148.699 292.895 146.724 291.247 144.028C291.083 143.761 290.677 144.028 290.84 144.295C292.56 147.097 295.275 149.147 298.443 150.037C298.745 150.122 298.842 149.646 298.542 149.561V149.561Z" fill="white"/>
<path d="M297.11 136.3C298.468 135.559 299.517 134.361 300.072 132.918C300.626 131.476 300.649 129.883 300.137 128.425C300.032 128.131 299.569 128.279 299.674 128.574C300.153 129.931 300.132 131.414 299.613 132.757C299.094 134.099 298.111 135.211 296.843 135.894C296.568 136.042 296.836 136.448 297.11 136.3Z" fill="white"/>
<path d="M289.063 124.651C288.597 125.047 288.041 125.322 287.443 125.45C286.845 125.578 286.225 125.555 285.638 125.385C285.337 125.296 285.24 125.773 285.539 125.86C286.188 126.046 286.873 126.07 287.534 125.93C288.195 125.79 288.811 125.491 289.33 125.058C289.382 125.021 289.418 124.966 289.431 124.903C289.444 124.841 289.433 124.776 289.4 124.721C289.364 124.668 289.309 124.63 289.246 124.617C289.182 124.604 289.117 124.616 289.063 124.651H289.063Z" fill="white"/>
<path d="M72.4755 96.0538C56.8004 80.6395 50.18 64.5585 53.8333 50.7735C58.5216 33.0834 79.3494 20.8522 110.976 17.2161L111.093 18.2308C79.9065 21.816 59.3964 33.7728 54.8217 51.0348C51.2662 64.4503 57.7905 80.18 73.1928 95.3262L72.4755 96.0538Z" fill="#F0F0F0"/>
<path d="M107.933 151.197C69.4916 134.166 39.8699 112.071 24.5246 88.981L25.3762 88.416C40.6155 111.346 70.0816 133.31 108.347 150.263L107.933 151.197Z" fill="#F0F0F0"/>
<path d="M199.689 152.302C180.125 152.302 158.866 149.398 137.75 143.813C111.636 136.908 87.6935 126.484 68.5092 113.669L69.0773 112.821C88.1692 125.573 112.006 135.949 138.011 142.826C161.512 149.041 185.188 151.921 206.473 151.161L206.51 152.181C204.262 152.262 201.988 152.302 199.689 152.302Z" fill="#F0F0F0"/>
<path d="M244.57 145.88L244.242 144.912C261.739 139.003 272.682 129.483 275.89 117.382C279.967 101.999 271.11 84.1477 250.95 67.1165C230.688 49.9988 201.469 35.7955 168.675 27.1233L168.937 26.136C201.874 34.8463 231.235 49.1232 251.61 66.3369C272.088 83.6368 281.062 101.858 276.878 117.644C273.579 130.092 262.407 139.856 244.57 145.88Z" fill="#F0F0F0"/>
<path d="M255.585 145.18C255.771 145.24 255.958 145.301 256.145 145.365C258.644 146.192 261.072 147.22 263.405 148.44C263.587 148.532 263.77 148.627 263.949 148.724C269.537 151.722 274.52 155.731 278.643 160.546C280.282 162.464 281.773 164.503 283.102 166.647C284.938 169.607 286.692 172.963 289.322 175.083C289.594 175.307 289.88 175.514 290.177 175.703L307.558 171.05C307.593 171.02 307.628 170.993 307.662 170.963L308.365 170.809C308.304 170.693 308.239 170.575 308.178 170.46C308.143 170.393 308.104 170.327 308.069 170.26C308.044 170.215 308.02 170.171 308 170.13C307.992 170.115 307.983 170.1 307.976 170.089C307.957 170.048 307.934 170.011 307.916 169.974C307.551 169.311 307.181 168.65 306.806 167.991C306.805 167.987 306.805 167.987 306.8 167.984C303.988 162.931 300.587 158.229 296.666 153.977C296.548 153.851 296.428 153.722 296.301 153.599C294.513 151.731 292.575 150.011 290.506 148.459C289.371 147.612 288.193 146.823 286.978 146.096C283.834 144.222 280.415 142.853 276.845 142.04C269.729 140.421 262.174 141.093 256.05 144.885C255.894 144.982 255.741 145.078 255.585 145.18Z" fill="#F2F2F2"/>
<path d="M255.683 145.389C264.799 144.79 273.873 147.074 281.615 151.919C283.3 152.932 284.815 154.205 286.103 155.689C287.312 157.176 288.099 158.959 288.385 160.853C288.686 162.613 288.791 164.449 289.516 166.105C289.899 166.947 290.457 167.699 291.152 168.311C291.846 168.923 292.663 169.382 293.548 169.657C295.734 170.398 298.057 170.311 300.326 170.147C302.845 169.965 305.458 169.736 307.859 170.695C308.15 170.811 308.314 170.354 308.023 170.238C303.846 168.568 299.331 170.362 295.033 169.544C293.027 169.163 291.124 168.176 290.152 166.308C289.301 164.675 289.192 162.783 288.902 160.998C288.651 159.146 287.949 157.384 286.859 155.866C285.651 154.321 284.187 152.992 282.532 151.937C278.845 149.503 274.796 147.663 270.536 146.485C265.682 145.113 260.628 144.581 255.594 144.912C255.282 144.932 255.374 145.41 255.683 145.389V145.389Z" fill="white"/>
<path d="M288.35 159.94C285.401 161.081 282.13 161.07 279.19 159.91C278.898 159.794 278.735 160.252 279.026 160.367C282.088 161.569 285.492 161.574 288.557 160.379C288.85 160.265 288.64 159.827 288.35 159.94V159.94Z" fill="white"/>
<path d="M265.767 145.751C265.634 146.348 265.355 146.901 264.955 147.363C264.555 147.825 264.046 148.18 263.475 148.397C263.181 148.507 263.391 148.946 263.682 148.836C264.313 148.594 264.874 148.201 265.317 147.691C265.761 147.182 266.072 146.573 266.225 145.915C266.245 145.855 266.241 145.789 266.213 145.731C266.186 145.673 266.138 145.628 266.078 145.605C266.018 145.583 265.951 145.587 265.893 145.614C265.834 145.642 265.789 145.691 265.767 145.752V145.751Z" fill="white"/>
<path d="M279.214 150.213C279.851 148.805 279.967 147.216 279.54 145.731C279.113 144.246 278.172 142.961 276.884 142.105C276.623 141.933 276.342 142.33 276.604 142.502C277.805 143.297 278.681 144.495 279.076 145.878C279.471 147.262 279.357 148.741 278.756 150.049C278.625 150.333 279.084 150.495 279.214 150.213L279.214 150.213Z" fill="white"/>
<path d="M48.4509 97.5858C32.7758 82.1715 26.1554 66.0905 29.8087 52.3055C34.497 34.6154 55.3248 22.3842 86.9517 18.748L87.0685 19.7628C55.8819 23.348 35.3718 35.3047 30.7971 52.5668C27.2416 65.9822 33.7659 81.712 49.1682 96.8582L48.4509 97.5858Z" fill="#F0F0F0"/>
<path d="M83.908 152.729C45.467 135.698 15.8453 113.603 0.5 90.513L1.35161 89.948C16.5909 112.878 46.0571 134.842 84.3223 151.795L83.908 152.729Z" fill="#F0F0F0"/>
<path d="M17.925 70.233C25.2715 62.0049 36.9905 56.9902 47.6106 59.9921C37.8131 66.918 30.7839 77.0825 27.7666 88.6871C26.6192 93.1667 25.8099 98.2685 22.0804 101.007C19.7599 102.712 16.6851 103.119 13.8313 102.731C10.9773 102.342 8.27884 101.234 5.61676 100.135L4.90045 100.197C6.9599 89.3656 10.5784 78.461 17.925 70.233Z" fill="#F2F2F2"/>
<path d="M47.5781 60.2211C38.699 62.3686 30.7231 67.2562 24.7831 74.1897C23.4779 75.6596 22.4127 77.3259 21.6269 79.1272C20.9181 80.9066 20.6993 82.843 20.9932 84.7355C21.2317 86.5054 21.6809 88.2884 21.4845 90.0854C21.3703 91.0038 21.0631 91.8877 20.583 92.6792C20.1028 93.4707 19.4606 94.1518 18.6984 94.6779C16.8335 96.0383 14.5905 96.6481 12.3762 97.1683C9.91773 97.7459 7.35496 98.307 5.3509 99.9391C5.10808 100.137 4.8151 99.7489 5.05755 99.5515C8.54427 96.7119 13.3901 97.0765 17.2478 95.014C19.0479 94.0516 20.5685 92.5415 20.9383 90.4693C21.2616 88.6573 20.8 86.8183 20.543 85.0282C20.2292 83.1863 20.3717 81.2957 20.958 79.5215C21.6495 77.686 22.6486 75.9816 23.9126 74.481C26.7042 71.0574 30.0174 68.0935 33.7308 65.698C37.9536 62.9405 42.6175 60.925 47.5207 59.7385C47.8242 59.6652 47.8796 60.1483 47.5781 60.2211H47.5781Z" fill="white"/>
<path d="M20.7539 83.8539C23.909 84.0632 27.0271 83.077 29.4866 81.0918C29.7301 80.895 30.0231 81.2828 29.7799 81.4794C27.2167 83.5405 23.9697 84.5603 20.687 84.3352C20.3741 84.3135 20.4428 83.8324 20.7539 83.8539Z" fill="white"/>
<path d="M62.6859 94.149C62.4902 94.1435 62.2944 94.138 62.0962 94.1358C59.464 94.0755 56.8313 94.229 54.2239 94.5946C54.0219 94.6197 53.8175 94.6481 53.6166 94.6789C47.3444 95.6267 41.3029 97.7295 35.7992 100.88C33.6102 102.136 31.5201 103.557 29.547 105.129C26.822 107.301 24.0405 109.873 20.8503 110.986C20.5188 111.106 20.1802 111.205 19.8364 111.283L5.03166 101.065C5.00968 101.025 4.98522 100.988 4.96307 100.948L4.3533 100.567C4.44939 100.479 4.55096 100.39 4.64706 100.301C4.70259 100.25 4.76143 100.201 4.81694 100.149C4.855 100.116 4.89325 100.082 4.92567 100.05C4.93831 100.039 4.9511 100.028 4.96141 100.02C4.99386 99.9874 5.02741 99.9607 5.05749 99.9316C5.62382 99.4302 6.19467 98.9319 6.77003 98.4367C6.77237 98.4334 6.77237 98.4334 6.77799 98.4323C11.126 94.6171 15.9117 91.3307 21.0348 88.6418C21.1888 88.5637 21.3449 88.482 21.5056 88.4085C23.8185 87.2494 26.2223 86.281 28.6931 85.513C30.0474 85.0969 31.4219 84.7495 32.8113 84.4722C36.4028 83.7625 40.0837 83.6216 43.7191 84.0546C50.966 84.9188 57.8555 88.0886 62.347 93.7157C62.4618 93.8598 62.5735 94.0016 62.6859 94.149Z" fill="#F2F2F2"/>
<path d="M62.5228 94.3138C54.139 90.6884 44.8248 89.794 35.9031 91.7576C33.975 92.1462 32.1202 92.836 30.4071 93.8016C28.7688 94.7961 27.4269 96.2107 26.521 97.8984C25.6446 99.4551 24.9286 101.149 23.6887 102.466C23.044 103.13 22.2659 103.651 21.4055 103.994C20.5451 104.338 19.6218 104.495 18.6962 104.457C16.3872 104.421 14.2287 103.559 12.1472 102.643C9.83611 101.626 7.45175 100.532 4.86791 100.63C4.55484 100.642 4.55474 100.156 4.86732 100.144C9.36274 99.974 13.0121 103.179 17.3354 103.853C19.3527 104.167 21.4771 103.876 23.0212 102.444C24.3715 101.191 25.1113 99.4452 25.985 97.8614C26.8446 96.2021 28.0979 94.7782 29.6354 93.7142C31.2938 92.6646 33.1189 91.9046 35.0325 91.4666C39.3249 90.412 43.7567 90.0381 48.1654 90.3587C53.1991 90.6967 58.1378 91.8924 62.7678 93.894C63.0544 94.018 62.8075 94.437 62.5228 94.3138H62.5228Z" fill="white"/>
<path d="M26.8613 97.0505C29.2542 99.1152 32.3383 100.203 35.4985 100.097C35.8116 100.086 35.8118 100.572 35.4991 100.583C32.2103 100.687 29.0031 99.5485 26.5177 97.3945C26.2809 97.1891 26.6258 96.8462 26.8613 97.0505V97.0505Z" fill="white"/>
<path d="M243.783 99.464C244.145 97.2371 242.631 95.1389 240.402 94.7775C238.173 94.4162 236.072 95.9285 235.71 98.1554C235.349 100.382 236.863 102.48 239.092 102.842C241.321 103.203 243.422 101.691 243.783 99.464Z" fill="#E6E6E6"/>
<path d="M52.9037 91.2695C52.8284 91.8756 52.9049 92.4908 53.1265 93.06C53.348 93.6292 53.7076 94.1345 54.173 94.5305C54.4122 94.7329 54.0671 95.0756 53.8294 94.8745C53.3173 94.4346 52.9208 93.876 52.6747 93.2477C52.4285 92.6194 52.3401 91.9404 52.4172 91.2701C52.4192 91.2063 52.4454 91.1457 52.4905 91.1005C52.5356 91.0553 52.5963 91.029 52.6601 91.0269C52.7246 91.0271 52.7862 91.0527 52.8318 91.0982C52.8774 91.1436 52.9032 91.2052 52.9036 91.2695H52.9037Z" fill="white"/>
<path d="M38.7386 90.9564C38.612 89.4164 39.0375 87.8816 39.9392 86.6261C40.8408 85.3706 42.1599 84.4762 43.6608 84.1025C43.9647 84.0279 44.095 84.4962 43.7907 84.5709C42.3924 84.9163 41.1638 85.7496 40.3266 86.9205C39.4893 88.0913 39.0987 89.5225 39.2251 90.9558C39.2522 91.2673 38.7656 91.2661 38.7386 90.9564Z" fill="white"/>
<path d="M38.0629 63.5754C38.3681 64.1046 38.8 64.5498 39.3199 64.871C39.8399 65.1923 40.4316 65.3794 41.0419 65.4158C41.3549 65.4335 41.2858 65.9147 40.9749 65.8971C40.3008 65.8538 39.6476 65.6463 39.0724 65.2926C38.4971 64.939 38.0173 64.4501 37.6749 63.8685C37.638 63.8164 37.6224 63.7522 37.6312 63.689C37.64 63.6257 37.6725 63.5682 37.7222 63.5281C37.7738 63.4896 37.8385 63.473 37.9023 63.4818C37.9661 63.4907 38.0238 63.5243 38.0629 63.5755L38.0629 63.5754Z" fill="white"/>
<path d="M26.5642 71.8446C25.535 70.6912 24.9497 69.2098 24.9129 67.6651C24.8761 66.1204 25.3902 64.6129 26.3633 63.4119C26.5611 63.1695 26.9473 63.4651 26.7493 63.7078C25.8411 64.8245 25.3623 66.2288 25.3995 67.6671C25.4367 69.1055 25.9875 70.4832 26.9522 71.5516C27.1616 71.784 26.7724 72.0757 26.5642 71.8446Z" fill="white"/>
<path d="M87.2563 59.1622C89.5148 59.1622 91.3456 57.3333 91.3456 55.0773C91.3456 52.8213 89.5148 50.9924 87.2563 50.9924C84.9979 50.9924 83.1671 52.8213 83.1671 55.0773C83.1671 57.3333 84.9979 59.1622 87.2563 59.1622Z" fill="#FD6584"/>
<path d="M220.784 18.1318C214.43 16.0655 207.895 14.1414 201.36 12.4131C163.752 2.46769 126.783 -1.06345 94.4477 2.20342L94.3448 1.18719C126.8 -2.09039 163.896 1.44921 201.621 11.4258C208.175 13.1591 214.729 15.0886 221.1 17.161L220.784 18.1318Z" fill="#F0F0F0"/>
<path d="M196.759 19.6636C190.406 17.5972 183.871 15.6732 177.335 13.9449C139.727 3.99945 102.758 0.4683 70.4231 3.73516L70.3203 2.71893C102.776 -0.558655 139.871 2.98094 177.597 12.9576C184.151 14.6909 190.704 16.6203 197.076 18.6927L196.759 19.6636Z" fill="#F0F0F0"/>
<path d="M209.107 57.1768H207.939V25.2359C207.939 20.3329 205.99 15.6308 202.519 12.1639C199.048 8.69698 194.341 6.74928 189.433 6.74927H121.689C119.258 6.74926 116.852 7.22742 114.606 8.15645C112.361 9.08548 110.321 10.4472 108.602 12.1638C106.884 13.8805 105.521 15.9184 104.591 18.1613C103.661 20.4042 103.182 22.8081 103.182 25.2358V25.2358V200.467C103.182 205.37 105.132 210.072 108.602 213.539C112.073 217.005 116.78 218.953 121.689 218.953H189.433C194.341 218.953 199.048 217.006 202.519 213.539C205.99 210.072 207.939 205.37 207.939 200.467V79.913H209.107V57.1768Z" fill="#3F3D56"/>
<path d="M203.999 25.3641V200.338C203.999 202.151 203.642 203.946 202.948 205.62C202.254 207.295 201.236 208.817 199.953 210.099C198.67 211.381 197.147 212.398 195.471 213.091C193.795 213.785 191.998 214.143 190.183 214.143H122.108C118.443 214.143 114.928 212.689 112.337 210.1C109.745 207.512 108.289 204.001 108.289 200.34V25.3641C108.289 23.5514 108.646 21.7564 109.34 20.0816C110.035 18.4068 111.052 16.885 112.335 15.6032C113.619 14.3213 115.142 13.3044 116.818 12.6106C118.495 11.9168 120.292 11.5597 122.107 11.5596H130.369C129.963 12.5554 129.807 13.6359 129.917 14.7058C130.027 15.7758 130.398 16.8024 130.999 17.6951C131.599 18.5879 132.41 19.3194 133.36 19.8253C134.311 20.3311 135.371 20.5957 136.447 20.5958H175.259C176.335 20.595 177.395 20.3299 178.345 19.8239C179.295 19.3179 180.106 18.5864 180.706 17.6939C181.306 16.8013 181.678 15.7751 181.788 14.7054C181.898 13.6357 181.743 12.5554 181.337 11.5596H190.18C191.994 11.5595 193.791 11.9164 195.468 12.6101C197.145 13.3037 198.668 14.3204 199.951 15.6021C201.234 16.8839 202.252 18.4055 202.947 20.0803C203.641 21.755 203.999 23.55 203.999 25.3627V25.3627L203.999 25.3641Z" fill="#F2F2F2"/>
<path d="M198.841 197.75H177.723V198.695H198.841V197.75Z" fill="white"/>
<path d="M166.703 197.75H145.585V198.695H166.703V197.75Z" fill="white"/>
<path d="M134.564 197.75H113.447V198.695H134.564V197.75Z" fill="white"/>
<path d="M202.835 212.718L196.412 212.717L193.357 187.972L202.836 187.972L202.835 212.718Z" fill="#FFB8B8"/>
<path d="M204.4 219.133H200.734L200.08 215.676L198.405 219.133H188.683C188.217 219.133 187.763 218.984 187.388 218.708C187.012 218.432 186.735 218.044 186.596 217.6C186.458 217.155 186.465 216.678 186.617 216.238C186.769 215.798 187.058 215.418 187.441 215.154L195.204 209.798V206.303L203.37 206.79L204.4 219.133Z" fill="#2F2E41"/>
<path d="M252.843 209.941L246.492 210.899L239.768 186.888L248.093 185.473L252.843 209.941Z" fill="#FFB8B8"/>
<path d="M253.865 219.133H250.199L249.545 215.676L247.87 219.133H238.148C237.682 219.133 237.228 218.984 236.853 218.708C236.477 218.432 236.2 218.044 236.061 217.6C235.923 217.155 235.93 216.678 236.082 216.238C236.234 215.798 236.523 215.418 236.906 215.154L244.669 209.798V206.303L252.835 206.79L253.865 219.133Z" fill="#2F2E41"/>
<path d="M189.25 165.87H120.412C119.943 165.87 119.494 165.685 119.163 165.354C118.832 165.023 118.646 164.574 118.646 164.106C118.646 163.638 118.832 163.189 119.163 162.859C119.494 162.528 119.943 162.342 120.412 162.342H189.25C189.718 162.342 190.168 162.528 190.499 162.859C190.83 163.189 191.016 163.638 191.016 164.106C191.016 164.574 190.83 165.023 190.499 165.354C190.168 165.685 189.718 165.87 189.25 165.87V165.87Z" fill="#CCCCCC"/>
<path d="M189.25 153.596H120.412C119.943 153.596 119.494 153.41 119.163 153.079C118.832 152.748 118.646 152.299 118.646 151.831C118.646 151.363 118.832 150.915 119.163 150.584C119.494 150.253 119.943 150.067 120.412 150.067H189.25C189.718 150.067 190.168 150.253 190.499 150.584C190.83 150.915 191.016 151.363 191.016 151.831C191.016 152.299 190.83 152.748 190.499 153.079C190.168 153.41 189.718 153.596 189.25 153.596V153.596Z" fill="#CCCCCC"/>
<path d="M189.25 141.321H120.412C120.18 141.321 119.95 141.275 119.736 141.186C119.522 141.098 119.327 140.968 119.163 140.804C118.999 140.64 118.869 140.446 118.78 140.231C118.691 140.017 118.646 139.788 118.646 139.556C118.646 139.325 118.691 139.095 118.78 138.881C118.869 138.667 118.999 138.473 119.163 138.309C119.327 138.145 119.522 138.015 119.736 137.926C119.95 137.838 120.18 137.792 120.412 137.792H189.25C189.482 137.792 189.712 137.838 189.926 137.926C190.14 138.015 190.335 138.145 190.499 138.309C190.663 138.473 190.793 138.667 190.882 138.881C190.97 139.095 191.016 139.325 191.016 139.556C191.016 139.788 190.97 140.017 190.882 140.231C190.793 140.446 190.663 140.64 190.499 140.804C190.335 140.968 190.14 141.098 189.926 141.186C189.712 141.275 189.482 141.321 189.25 141.321V141.321Z" fill="#CCCCCC"/>
<path d="M197.315 110.132L220.473 111.076L223.309 95.4962L203.459 89.3591L197.315 110.132Z" fill="#FFB8B8"/>
<path d="M221.419 106.355L199.205 102.578L198.415 104.205C194.164 112.969 191.654 122.473 191.024 132.192C190.487 140.396 190.172 149.061 190.161 158.144C190.145 172.217 190.864 185.276 192.001 197.158L204.192 197.082C203.84 184.466 204.319 171.841 205.627 159.288C206.561 150.337 207.858 141.976 209.358 134.261C212.141 145.587 216.069 156.602 221.081 167.135C225.342 176.135 234.105 186.538 238.365 195.538C242.731 195.015 247.096 194.491 251.462 193.968C248.022 184.88 241.884 171.608 238.444 162.52C233.525 149.525 231.303 140.714 226.384 127.72C226.664 125.277 226.719 122.813 226.547 120.361C226.318 116.272 225.467 111.366 222.978 108.096L221.419 106.355Z" fill="#2F2E41"/>
<path d="M104.999 77.2502H101.218V89.053H104.999V77.2502Z" fill="#3F3D56"/>
<path d="M156.144 117.151C173.823 117.151 188.154 102.835 188.154 85.1758C188.154 67.5162 173.823 53.2002 156.144 53.2002C138.465 53.2002 124.134 67.5162 124.134 85.1758C124.134 102.835 138.465 117.151 156.144 117.151Z" fill="#D1D3D4"/>
<path d="M156.144 115.764C172.272 115.764 185.347 102.704 185.347 86.5928C185.347 70.4819 172.272 57.4214 156.144 57.4214C140.016 57.4214 126.941 70.4819 126.941 86.5928C126.941 102.704 140.016 115.764 156.144 115.764Z" fill="#FF4D67"/>
<path d="M153.594 98.0264C153.531 98.0264 153.468 98.0249 153.404 98.0218C152.844 97.9947 152.296 97.8469 151.798 97.5885C151.301 97.3302 150.865 96.9675 150.521 96.5252L145.918 90.6146C145.286 89.8002 145.002 88.7682 145.13 87.7452C145.258 86.7222 145.787 85.7917 146.601 85.1578L146.766 85.0295C147.581 84.3973 148.614 84.114 149.639 84.2416C150.663 84.3692 151.595 84.8974 152.23 85.7103C152.436 85.9759 152.698 86.1937 152.997 86.3488C153.296 86.5039 153.624 86.5926 153.961 86.6089C154.297 86.6286 154.634 86.5737 154.947 86.4483C155.26 86.3229 155.541 86.13 155.771 85.8833L165.116 76.0291C165.827 75.2816 166.805 74.8462 167.837 74.8183C168.869 74.7904 169.869 75.1724 170.619 75.8804L170.771 76.0238C171.52 76.7336 171.956 77.7111 171.984 78.7418C172.012 79.7725 171.63 80.7722 170.921 81.5216L156.419 96.8121C156.056 97.1958 155.618 97.5014 155.132 97.7102C154.646 97.919 154.123 98.0266 153.594 98.0264V98.0264Z" fill="white"/>
<path opacity="0.16" d="M156.144 111.723C148.756 111.722 141.643 108.924 136.238 103.891C130.834 98.8589 127.54 91.9672 127.021 84.6052C126.974 85.2843 126.941 85.9675 126.941 86.6587C126.941 94.3954 130.018 101.815 135.494 107.286C140.971 112.757 148.399 115.83 156.144 115.83C163.889 115.83 171.317 112.757 176.793 107.286C182.27 101.815 185.347 94.3954 185.347 86.6587C185.347 85.9675 185.314 85.2843 185.267 84.6052C184.748 91.9672 181.454 98.8589 176.05 103.891C170.645 108.924 163.532 111.722 156.144 111.723V111.723Z" fill="#231F20"/>
<path d="M104.999 63.0869H101.218V74.8897H104.999V63.0869Z" fill="#3F3D56"/>
<path d="M206.068 76.388L206.292 69.0276L195.068 66.2167L174.861 60.3278C174.593 59.5174 174.086 58.8071 173.406 58.2911C172.725 57.775 171.904 57.4774 171.051 57.4377C170.198 57.3979 169.352 57.6179 168.627 58.0684C167.901 58.519 167.33 59.1789 166.988 59.961C166.646 60.743 166.55 61.6102 166.713 62.448C166.875 63.2857 167.288 64.0545 167.897 64.6526C168.507 65.2507 169.283 65.65 170.125 65.7975C170.966 65.9451 171.832 65.8341 172.609 65.4791L192.254 73.5458L206.068 76.388Z" fill="#FFB8B8"/>
<path d="M198.835 76.3363L205.149 67.3406L205.307 67.3615C205.406 67.3746 215.308 68.6978 221.799 70.6288C222.528 70.8219 223.207 71.1716 223.787 71.6536C224.368 72.1356 224.836 72.7382 225.159 73.4195C225.623 74.3715 225.798 75.4382 225.664 76.4884C225.529 77.5387 225.091 78.5269 224.402 79.3317C223.701 80.2017 222.764 80.8516 221.703 81.2037C220.642 81.5559 219.502 81.5954 218.419 81.3175L198.835 76.3363Z" fill="#FF4D67"/>
<path d="M224.85 99.5813C225.96 101.653 223.325 105.944 221.419 106.355L199.452 99.262L210.513 67.2461L216.077 68.2564L224.977 69.7543L228.134 72.6207C228.929 73.3433 229.497 74.2809 229.769 75.3197C230.041 76.3585 230.005 77.4538 229.665 78.4725L224.85 99.5813Z" fill="#FF4D67"/>
<path d="M209.729 87.2085L203.514 83.2471L195.35 91.4378L179.938 105.76C179.105 105.575 178.234 105.647 177.442 105.966C176.65 106.285 175.973 106.838 175.502 107.549C175.031 108.261 174.787 109.099 174.803 109.952C174.819 110.805 175.094 111.634 175.592 112.327C176.089 113.021 176.785 113.548 177.589 113.837C178.392 114.127 179.265 114.166 180.091 113.95C180.918 113.733 181.659 113.271 182.216 112.625C182.774 111.979 183.122 111.178 183.215 110.33L200.211 97.6051L209.729 87.2085Z" fill="#FFB8B8"/>
<path d="M205.981 93.3874L201.479 83.3636L201.577 83.2391C201.639 83.161 207.848 75.3426 212.832 70.7619C213.372 70.2349 214.02 69.8318 214.731 69.5807C215.443 69.3295 216.201 69.2365 216.952 69.3081C218.008 69.3979 219.015 69.7937 219.849 70.4468C220.683 71.0999 221.309 71.982 221.648 72.9849C222.037 74.0319 222.116 75.1686 221.876 76.2592C221.635 77.3498 221.086 78.3481 220.292 79.1349L205.981 93.3874Z" fill="#FF4D67"/>
<path d="M219.983 65.1068C225.379 65.1068 229.753 60.7376 229.753 55.3479C229.753 49.9581 225.379 45.5889 219.983 45.5889C214.588 45.5889 210.214 49.9581 210.214 55.3479C210.214 60.7376 214.588 65.1068 219.983 65.1068Z" fill="#FFB8B8"/>
<path d="M227.873 69.4888L227.836 69.4794L213.639 65.9323C213.147 65.8094 212.69 65.5731 212.306 65.2422C211.922 64.9114 211.621 64.4952 211.428 64.0272C211.234 63.5591 211.152 63.0522 211.19 62.547C211.227 62.0419 211.383 61.5526 211.644 61.1183L212.113 60.3389C212.571 59.5778 212.831 58.7143 212.869 57.8271C212.907 56.94 212.722 56.0574 212.331 55.26C211.658 53.9577 210.501 52.9706 209.109 52.5108L209.062 52.4882L208.763 52.3028C208.47 52.1647 208.209 51.9669 207.997 51.7221C207.785 51.4773 207.627 51.191 207.532 50.8814C207.434 50.5607 207.404 50.2229 207.444 49.8898C207.485 49.5568 207.595 49.236 207.767 48.948C209.02 46.8539 210.896 45.2021 213.133 44.2225C215.959 43.0072 219.142 42.9116 222.037 43.9554C222.229 43.7784 222.463 43.652 222.717 43.5876C222.971 43.5232 223.236 43.5228 223.49 43.5863C230.843 45.365 231.448 50.2948 229.995 58.2082L231.715 65.1347C231.836 65.6238 231.85 66.1334 231.754 66.6282C231.659 67.123 231.456 67.591 231.161 67.9998C230.866 68.4086 230.486 68.7484 230.046 68.9954C229.607 69.2425 229.118 69.391 228.615 69.4305L227.873 69.4888ZM221.958 44.0333L221.957 44.0342L221.958 44.0333ZM222.135 43.99L222.137 43.9904L222.135 43.99Z" fill="#2F2E41"/>
<path d="M104.999 40.4255H101.218V60.7263H104.999V40.4255Z" fill="#3F3D56"/>
<path d="M198.841 28.2622H177.723V29.2064H198.841V28.2622Z" fill="white"/>
<path d="M166.703 28.2622H145.585V29.2064H166.703V28.2622Z" fill="white"/>
<path d="M134.564 28.2622H113.447V29.2064H134.564V28.2622Z" fill="white"/>
<path d="M137.61 16.3477C138.654 16.3477 139.5 15.5022 139.5 14.4592C139.5 13.4163 138.654 12.5708 137.61 12.5708C136.566 12.5708 135.719 13.4163 135.719 14.4592C135.719 15.5022 136.566 16.3477 137.61 16.3477Z" fill="white"/>
<path d="M87.0901 13.1932C89.3486 13.1932 91.1794 11.3643 91.1794 9.10833C91.1794 6.8523 89.3486 5.02344 87.0901 5.02344C84.8317 5.02344 83.0008 6.8523 83.0008 9.10833C83.0008 11.3643 84.8317 13.1932 87.0901 13.1932Z" fill="#E6E6E6"/>
</g>
<defs>
<clipPath id="clip0_3344_71333">
<rect width="309" height="220" fill="white" transform="translate(0.5)"/>
</clipPath>
</defs>
</svg>
