<svg width="393" height="461" viewBox="0 0 393 461" fill="none" xmlns="http://www.w3.org/2000/svg">
<path d="M313.669 446.34C314.027 447.574 314.689 448.647 315.528 449.626C318.328 452.887 322.77 454.021 326.173 456.514C326.534 456.783 326.898 457.072 327.265 457.338C327.655 457.622 328.178 458.319 328.75 458.289C329.315 458.188 329.65 457.382 329.965 457.018C330.263 456.672 330.543 456.305 330.835 455.962C333.558 452.741 337.605 450.59 339.562 446.762C340.15 445.613 340.54 444.413 340.601 443.128C340.663 441.839 340.434 440.031 339.774 438.884C338.22 436.187 335.953 434.805 333.102 435.164L332.781 435.206C331.667 435.355 330.611 435.738 329.638 436.288C328.595 436.882 327.922 437.664 327.023 438.404C326.682 438.68 326.157 438.742 325.761 438.554C324.712 438.047 323.875 437.443 322.722 437.115C321.644 436.809 320.529 436.686 319.409 436.799C319.306 436.811 319.198 436.821 319.09 436.836C316.236 437.16 314.349 439.037 313.475 442.024C313.101 443.289 313.305 445.099 313.669 446.34Z" fill="#FF4D67" fill-opacity="0.7"/>
<path d="M103.565 443.296C104.705 445.357 106.325 447.006 108.223 448.416C114.552 453.109 122.954 453.331 130.05 456.406C130.806 456.74 131.574 457.11 132.338 457.436C133.151 457.785 134.368 458.819 135.38 458.534C136.348 458.123 136.621 456.546 137.035 455.767C137.426 455.027 137.779 454.257 138.161 453.525C141.722 446.661 148.084 441.172 150.027 433.533C150.612 431.241 150.821 428.937 150.407 426.616C149.994 424.286 148.851 421.145 147.205 419.364C143.332 415.174 138.719 413.624 133.766 415.424L133.21 415.629C131.278 416.348 129.547 417.46 128.03 418.84C126.406 420.325 125.522 421.997 124.215 423.685C123.717 424.317 122.803 424.64 122.02 424.466C119.938 423.984 118.197 423.245 116.001 423.127C113.95 423.017 111.908 423.252 109.95 423.908C109.771 423.971 109.583 424.033 109.395 424.104C104.424 425.842 101.813 429.963 101.465 435.66C101.31 438.073 102.409 441.225 103.565 443.296Z" fill="#FF4D67" fill-opacity="0.7"/>
<path d="M42.6859 390.427C43.2542 390.726 43.8702 390.86 44.5139 390.897C46.6594 391.02 48.6083 389.814 50.6865 389.453C50.9087 389.416 51.139 389.385 51.3622 389.345C51.5999 389.303 52.032 389.357 52.22 389.14C52.3792 388.902 52.2055 388.502 52.1833 388.262C52.1619 388.035 52.1272 387.806 52.1048 387.582C51.8894 385.484 52.5187 383.281 51.8186 381.248C51.609 380.638 51.312 380.082 50.8702 379.614C50.4275 379.145 49.6969 378.6 49.0551 378.44C47.5448 378.064 46.261 378.401 45.4011 379.552L45.3049 379.682C44.9722 380.135 44.7438 380.648 44.6045 381.19C44.4565 381.771 44.505 382.285 44.4597 382.865C44.4407 383.084 44.2807 383.294 44.0759 383.372C43.5292 383.574 43.0215 383.666 42.5032 383.967C42.0192 384.249 41.5886 384.608 41.2405 385.051C41.2091 385.092 41.1756 385.134 41.1432 385.179C40.2699 386.319 40.2913 387.649 41.0642 389C41.3902 389.573 42.1124 390.128 42.6859 390.427Z" fill="#FF4D67" fill-opacity="0.7"/>
<path d="M353.092 360.082C352.694 361.075 352.578 362.12 352.627 363.193C352.793 366.771 355.128 369.794 356.084 373.177C356.183 373.539 356.274 373.916 356.378 374.279C356.489 374.666 356.474 375.391 356.866 375.666C357.288 375.888 357.922 375.532 358.316 375.453C358.689 375.379 359.061 375.282 359.429 375.206C362.87 374.488 366.631 375.152 369.88 373.642C370.855 373.189 371.727 372.601 372.426 371.788C373.128 370.974 373.905 369.669 374.06 368.577C374.423 366.009 373.644 363.939 371.587 362.711L371.355 362.574C370.546 362.101 369.657 361.81 368.736 361.673C367.746 361.527 366.903 361.696 365.933 361.721C365.567 361.727 365.191 361.498 365.027 361.172C364.599 360.3 364.359 359.475 363.77 358.667C363.219 357.913 362.55 357.261 361.756 356.76C361.682 356.715 361.606 356.667 361.527 356.621C359.487 355.37 357.285 355.634 355.179 357.148C354.284 357.787 353.49 359.079 353.092 360.082Z" fill="#FF4D67" fill-opacity="0.3"/>
<path d="M379.642 253.243C380.118 253.674 380.682 253.956 381.296 254.152C383.343 254.805 385.531 254.12 387.634 254.287C387.858 254.307 388.089 254.335 388.315 254.351C388.556 254.37 388.961 254.529 389.197 254.366C389.41 254.175 389.341 253.744 389.379 253.506C389.415 253.281 389.438 253.051 389.472 252.828C389.785 250.742 390.942 248.765 390.769 246.622C390.718 245.979 390.568 245.366 390.257 244.803C389.944 244.238 389.372 243.529 388.79 243.215C387.421 242.475 386.094 242.482 384.975 243.384L384.849 243.486C384.414 243.842 384.066 244.282 383.796 244.772C383.508 245.299 383.427 245.808 383.239 246.359C383.167 246.566 382.959 246.73 382.742 246.754C382.162 246.814 381.647 246.777 381.07 246.94C380.531 247.093 380.025 247.334 379.578 247.676C379.537 247.708 379.494 247.741 379.452 247.776C378.323 248.663 378.013 249.957 378.426 251.457C378.599 252.094 379.161 252.81 379.642 253.243Z" fill="#FF4D67" fill-opacity="0.5"/>
<path d="M5.09216 243.082C4.69391 244.075 4.57838 245.12 4.62716 246.193C4.79261 249.771 7.12825 252.794 8.08384 256.177C8.18325 256.539 8.27368 256.916 8.37842 257.279C8.48894 257.666 8.47438 258.391 8.86566 258.666C9.28839 258.888 9.92216 258.532 10.3156 258.453C10.6886 258.379 11.0612 258.282 11.4288 258.206C14.8697 257.488 18.6306 258.152 21.8799 256.642C22.8551 256.189 23.7268 255.601 24.4256 254.788C25.1277 253.974 25.9055 252.669 26.0598 251.577C26.4231 249.009 25.6437 246.939 23.5868 245.711L23.3547 245.574C22.5465 245.101 21.6571 244.81 20.7356 244.673C19.7458 244.527 18.9027 244.696 17.9329 244.721C17.5671 244.727 17.1907 244.498 17.027 244.172C16.5985 243.3 16.3585 242.475 15.7696 241.667C15.2189 240.913 14.5496 240.261 13.756 239.76C13.6822 239.715 13.6063 239.667 13.5272 239.621C11.487 238.37 9.28516 238.634 7.17868 240.148C6.28414 240.787 5.48957 242.079 5.09216 243.082Z" fill="#FF4D67" fill-opacity="0.7"/>
<path d="M277.625 115.434C277.519 116.283 277.642 117.115 277.897 117.936C278.752 120.671 281.173 122.535 282.6 124.959C282.751 125.219 282.897 125.492 283.052 125.752C283.216 126.029 283.352 126.593 283.711 126.726C284.083 126.812 284.501 126.408 284.789 126.267C285.063 126.134 285.331 125.983 285.601 125.85C288.117 124.595 291.162 124.345 293.37 122.516C294.032 121.968 294.587 121.336 294.963 120.565C295.341 119.792 295.678 118.624 295.575 117.748C295.335 115.687 294.311 114.244 292.47 113.712L292.263 113.653C291.541 113.451 290.794 113.407 290.053 113.487C289.257 113.576 288.639 113.878 287.894 114.094C287.612 114.173 287.274 114.072 287.082 113.853C286.573 113.266 286.22 112.675 285.6 112.17C285.021 111.699 284.37 111.33 283.654 111.104C283.588 111.084 283.52 111.062 283.449 111.043C281.616 110.489 279.966 111.14 278.644 112.74C278.081 113.416 277.729 114.578 277.625 115.434Z" fill="#FF4D67" fill-opacity="0.3"/>
<path d="M377.686 102.427C378.254 102.726 378.87 102.86 379.514 102.897C381.659 103.02 383.608 101.814 385.687 101.453C385.909 101.416 386.139 101.385 386.362 101.345C386.6 101.303 387.032 101.357 387.22 101.14C387.379 100.902 387.206 100.502 387.183 100.262C387.162 100.035 387.127 99.8064 387.105 99.5823C386.889 97.4844 387.519 95.281 386.819 93.2483C386.609 92.6383 386.312 92.0816 385.87 91.6142C385.427 91.1447 384.697 90.5997 384.055 90.44C382.545 90.064 381.261 90.4009 380.401 91.5524L380.305 91.6824C379.972 92.1354 379.744 92.6482 379.604 93.1896C379.457 93.7714 379.505 94.2849 379.46 94.8653C379.441 95.0839 379.281 95.2944 379.076 95.3719C378.529 95.5736 378.022 95.6656 377.503 95.9671C377.019 96.2491 376.589 96.6081 376.24 97.0506C376.209 97.0919 376.176 97.1342 376.143 97.1786C375.27 98.3186 375.291 99.649 376.064 101C376.39 101.573 377.112 102.128 377.686 102.427Z" fill="#FF4D67" fill-opacity="0.7"/>
<path d="M113.036 98.9252C113.923 100.133 115.079 101.043 116.391 101.779C120.767 104.227 126.088 103.686 130.816 105.052C131.32 105.201 131.835 105.372 132.344 105.516C132.886 105.671 133.737 106.224 134.353 105.962C134.93 105.624 134.975 104.607 135.173 104.082C135.36 103.583 135.52 103.069 135.702 102.576C137.393 97.954 140.963 93.9739 141.57 88.9944C141.753 87.5006 141.698 86.0293 141.249 84.5976C140.799 83.1604 139.823 81.271 138.64 80.2805C135.855 77.9495 132.818 77.3453 129.838 78.8831L129.503 79.0576C128.343 79.6683 127.34 80.5109 126.495 81.5044C125.59 82.5738 125.167 83.7008 124.48 84.8722C124.216 85.3114 123.666 85.5896 123.157 85.543C121.804 85.4079 120.645 85.0827 119.25 85.1858C117.946 85.2831 116.676 85.5967 115.494 86.1696C115.386 86.2242 115.273 86.2787 115.159 86.3387C112.163 87.8387 110.849 90.6518 111.091 94.2754C111.19 95.8113 112.139 97.7117 113.036 98.9252Z" fill="#FF4D67" fill-opacity="0.5"/>
<path d="M345.625 37.4337C345.519 38.2835 345.641 39.115 345.897 39.9357C346.752 42.6706 349.173 44.5355 350.6 46.9591C350.75 47.2189 350.897 47.492 351.052 47.7517C351.216 48.0286 351.352 48.5929 351.71 48.7258C352.083 48.8123 352.501 48.4075 352.789 48.2671C353.063 48.1338 353.331 47.983 353.601 47.8498C356.117 46.5952 359.162 46.3451 361.37 44.5164C362.032 43.9682 362.587 43.336 362.963 42.5651C363.341 41.792 363.677 40.6243 363.575 39.7484C363.335 37.6872 362.311 36.2436 360.47 35.7118L360.263 35.6528C359.541 35.4506 358.794 35.4066 358.053 35.4871C357.257 35.5758 356.639 35.8777 355.894 36.0939C355.612 36.1728 355.274 36.0721 355.081 35.853C354.573 35.2656 354.219 34.6754 353.6 34.1703C353.02 33.6989 352.37 33.3303 351.654 33.1038C351.588 33.0841 351.52 33.0622 351.449 33.0426C349.616 32.4886 347.966 33.1404 346.644 34.7397C346.081 35.4159 345.729 36.5775 345.625 37.4337Z" fill="#FF4D67" fill-opacity="0.3"/>
<path d="M36.5545 25.8893C36.0483 27.07 35.8799 28.3194 35.9077 29.6086C36.004 33.9056 38.7195 37.5992 39.7692 41.685C39.8781 42.1219 39.9759 42.5764 40.0911 43.015C40.2127 43.4822 40.1745 44.3521 40.636 44.6926C41.1368 44.9719 41.9073 44.5621 42.3815 44.4795C42.8311 44.4009 43.2808 44.2952 43.7241 44.2149C47.8724 43.4517 52.3653 44.3558 56.3065 42.6368C57.4893 42.1219 58.5519 41.4411 59.4135 40.4861C60.2791 39.5286 61.2494 37.9855 61.4657 36.6805C61.9749 33.6097 61.0991 31.1038 58.6666 29.5727L58.3921 29.4015C57.436 28.8103 56.3773 28.4366 55.2759 28.2449C54.0925 28.0425 53.0763 28.2208 51.9121 28.2229C51.4732 28.2197 51.0281 27.9341 50.8411 27.5382C50.352 26.4803 50.0877 25.4829 49.4042 24.4975C48.7651 23.5774 47.9808 22.7761 47.0431 22.1524C46.9558 22.0964 46.8662 22.0364 46.7726 21.9788C44.3608 20.4192 41.7118 20.6734 39.1415 22.4293C38.05 23.1704 37.0599 24.6983 36.5545 25.8893Z" fill="#FF4D67" fill-opacity="0.7"/>
<path d="M223.07 20.9212C222.275 23.1378 222.105 25.443 222.299 27.7991C222.951 35.6518 228.329 42.1101 230.703 49.4708C230.951 50.2584 231.18 51.0792 231.439 51.8691C231.714 52.7106 231.74 54.3067 232.622 54.8786C233.57 55.3344 234.934 54.499 235.793 54.2954C236.607 54.1017 237.418 53.8584 238.221 53.6624C245.728 51.8062 254.05 52.963 261.071 49.3806C263.179 48.3073 265.048 46.9438 266.519 45.1006C267.997 43.2526 269.601 40.3212 269.853 37.9091C270.444 32.233 268.564 27.7444 263.943 25.2121L263.422 24.9292C261.607 23.9532 259.628 23.3866 257.591 23.1578C255.403 22.9185 253.563 23.3574 251.433 23.4902C250.629 23.5329 249.783 23.0597 249.397 22.3559C248.385 20.4742 247.791 18.6782 246.431 16.9506C245.159 15.3377 243.635 13.9582 241.85 12.9206C241.684 12.8279 241.514 12.728 241.336 12.633C236.75 10.0461 231.93 10.8048 227.421 14.3028C225.506 15.7799 223.863 18.6857 223.07 20.9212Z" fill="#FF4D67" fill-opacity="0.7"/>
</svg>
