<svg width="20" height="20" viewBox="0 0 20 20" fill="none" xmlns="http://www.w3.org/2000/svg">
<path d="M19.45 0.565078C18.865 -0.0199215 17.92 -0.0199215 17.335 0.565078L9.99996 7.88508L2.66496 0.550078C2.07996 -0.0349219 1.13496 -0.0349219 0.549956 0.550078C-0.0350439 1.13508 -0.0350439 2.08008 0.549956 2.66508L7.88496 10.0001L0.549956 17.3351C-0.0350439 17.9201 -0.0350439 18.8651 0.549956 19.4501C1.13496 20.0351 2.07996 20.0351 2.66496 19.4501L9.99996 12.1151L17.335 19.4501C17.92 20.0351 18.865 20.0351 19.45 19.4501C20.035 18.8651 20.035 17.9201 19.45 17.3351L12.115 10.0001L19.45 2.66508C20.02 2.09508 20.02 1.13508 19.45 0.565078Z" fill="url(#paint0_linear_3378_10675)"/>
<defs>
<linearGradient id="paint0_linear_3378_10675" x1="19.8887" y1="19.9369" x2="0.111206" y2="0.159373" gradientUnits="userSpaceOnUse">
<stop stop-color="#FF4D67"/>
<stop offset="1" stop-color="#FD788C"/>
</linearGradient>
</defs>
</svg>
